<?xml version="1.0" encoding="utf-8"?>
<!-- Generator: Adobe Illustrator 23.0.1, SVG Export Plug-In . SVG Version: 6.00 Build 0)  -->
<svg version="1.1" id="Layer_1" xmlns="http://www.w3.org/2000/svg" xmlns:xlink="http://www.w3.org/1999/xlink" x="0px" y="0px"
	 viewBox="0 0 1047.09 160.18" style="enable-background:new 0 0 1047.09 160.18;" xml:space="preserve">
<style type="text/css">
	.st0{stroke:#000000;stroke-width:2.7;}
	.st1{fill-rule:evenodd;clip-rule:evenodd;}
</style>
<g>
	<g>
		<path d="M143.51,147.75c-4.73,0-7.71-1.41-8.77-2.01c-0.68-1.19-1.41-5.04-1.52-7.59c0.28-0.38,1.12-0.49,1.35-0.16
			c0.84,2.77,3.15,8.08,9.67,8.08c4.72,0,7.03-2.98,7.03-6.24c0-2.38-0.51-5.04-4.61-7.59l-5.34-3.36
			c-2.81-1.79-6.07-4.88-6.07-9.33c0-5.15,4.16-9.33,11.47-9.33c1.74,0,3.77,0.27,5.23,0.71c0.73,0.16,1.52,0.32,1.97,0.32
			c0.51,1.3,1.01,4.34,1.01,6.62c-0.22,0.32-1.13,0.49-1.4,0.16c-0.73-2.61-2.25-6.13-7.65-6.13c-5.51,0-6.69,3.52-6.69,6.02
			c0,3.15,2.7,5.37,4.78,6.67l4.5,2.71c3.54,2.12,7.03,5.26,7.03,10.41C155.49,143.68,150.82,147.75,143.51,147.75z"/>
		<path d="M179.05,125.67c0.45,0.38,0.85,1.25,0.85,2.17c0,0.98-0.57,2-1.24,2c-0.28,0-0.56-0.11-0.78-0.38
			c-1.24-1.47-3.32-2.88-5.62-2.88c-3.94,0-7.76,2.98-7.76,8.73c0,4.23,3.04,9.27,9.05,9.27c3.26,0,4.95-1.41,6.24-3.25
			c0.45-0.11,0.95,0.27,1.01,0.76c-1.91,4.01-6.13,5.53-9.39,5.53c-2.98,0-5.74-0.92-7.7-2.77c-1.97-1.85-3.26-4.5-3.26-8.03
			c0-5.86,4.28-12.1,13.61-12.1C175.34,124.74,177.53,125.02,179.05,125.67z"/>
		<path d="M185.85,116.28c0-3.2-0.06-3.52-1.74-4.5l-0.56-0.32c-0.28-0.16-0.28-0.92,0-1.08c1.41-0.43,4.05-1.25,6.07-2.28
			c0.22,0,0.45,0.11,0.56,0.32c-0.05,1.63-0.17,4.34-0.17,6.73v11.39c0,0.49,0.05,0.92,0.22,1.03c2.02-1.51,4.73-2.82,7.59-2.82
			c5.34,0,7.25,3.21,7.25,7v9.05c0,3.91,0.11,4.51,2.14,4.72l1.51,0.16c0.4,0.27,0.28,1.2-0.11,1.36c-2.02-0.11-3.66-0.16-5.62-0.16
			c-2.03,0-3.71,0.05-5.23,0.16c-0.39-0.16-0.51-1.09-0.11-1.36l1.12-0.16c2.08-0.33,2.14-0.81,2.14-4.72v-7.75
			c0-3.47-1.75-5.81-5.34-5.81c-1.91,0-3.37,0.65-4.39,1.47c-1.01,0.82-1.18,1.08-1.18,2.98v9.11c0,3.91,0.11,4.45,2.14,4.72
			l1.18,0.16c0.4,0.22,0.28,1.2-0.11,1.36c-1.69-0.11-3.32-0.16-5.29-0.16c-2.03,0-3.71,0.05-5.51,0.16
			c-0.39-0.16-0.51-1.09-0.11-1.36l1.41-0.16c2.08-0.21,2.14-0.81,2.14-4.72V116.28z"/>
		<path d="M235.23,135.97c0,6.78-4.84,11.67-11.86,11.67c-6.47,0-11.53-4.4-11.53-11.17c0-6.84,5.34-11.72,11.98-11.72
			C230.11,124.74,235.23,129.3,235.23,135.97z M223.14,126.37c-3.71,0-6.47,3.42-6.47,9.38c0,4.94,2.31,10.25,7.25,10.25
			c4.95,0,6.47-4.99,6.47-9.17C230.39,132.23,228.48,126.37,223.14,126.37z"/>
		<path d="M262.56,135.97c0,6.78-4.84,11.67-11.87,11.67c-6.47,0-11.53-4.4-11.53-11.17c0-6.84,5.34-11.72,11.98-11.72
			C257.44,124.74,262.56,129.3,262.56,135.97z M250.47,126.37c-3.71,0-6.47,3.42-6.47,9.38c0,4.94,2.31,10.25,7.25,10.25
			c4.95,0,6.47-4.99,6.47-9.17C257.72,132.23,255.81,126.37,250.47,126.37z"/>
		<path d="M273.64,140.8c0,3.91,0.11,4.45,2.13,4.72l1.35,0.16c0.39,0.27,0.28,1.2-0.11,1.36c-1.86-0.11-3.49-0.16-5.46-0.16
			c-2.02,0-3.71,0.05-5.4,0.16c-0.39-0.16-0.51-1.09-0.11-1.36l1.29-0.16c2.08-0.27,2.14-0.81,2.14-4.72v-24.52
			c0-3.2-0.06-3.52-1.74-4.5l-0.56-0.32c-0.28-0.16-0.28-0.92,0-1.08c1.41-0.43,4.05-1.25,6.07-2.28c0.23,0,0.45,0.11,0.57,0.32
			c-0.06,1.63-0.17,4.34-0.17,6.73V140.8z"/>
		<path d="M317.84,135.97c0,6.78-4.84,11.67-11.87,11.67c-6.47,0-11.53-4.4-11.53-11.17c0-6.84,5.34-11.72,11.98-11.72
			C312.72,124.74,317.84,129.3,317.84,135.97z M305.75,126.37c-3.71,0-6.47,3.42-6.47,9.38c0,4.94,2.3,10.25,7.25,10.25
			c4.95,0,6.47-4.99,6.47-9.17C313,132.23,311.09,126.37,305.75,126.37z"/>
		<path d="M330.26,127.78c-0.96,0-0.96,0.11-0.96,1.57v11.45c0,3.91,0.11,4.56,2.14,4.72l2.03,0.16c0.39,0.27,0.28,1.2-0.11,1.36
			c-2.53-0.11-4.16-0.16-6.13-0.16c-2.02,0-3.71,0.05-5.4,0.16c-0.39-0.16-0.5-1.09-0.11-1.36l1.3-0.16
			c2.08-0.27,2.13-0.81,2.13-4.72v-11.45c0-1.46,0-1.57-1.12-1.57h-1.97c-0.34-0.22-0.39-0.7-0.17-1.03l2.42-1.14
			c0.45-0.22,0.84-0.54,0.84-1.09c0-3.14,0.39-6.51,1.74-9.55c1.41-3.09,4.56-6.89,10.12-6.89c2.98,0,5.51,1.3,5.51,3.25
			c0,1.09-1.07,1.96-2.14,1.96c-0.62,0-0.96-0.22-1.35-0.65c-1.07-1.2-2.64-2.38-4.5-2.38c-1.75,0-3.15,1.03-4,2.98
			c-1.01,2.49-1.23,6.45-1.23,9.16v1.58c0,1.46,0,1.52,0.96,1.52h6.41c0.62,0.54,0.22,2.06-0.4,2.28H330.26z"/>
		<path d="M357.37,119.32c0-5.75-0.11-6.67-3.43-6.94l-1.41-0.11c-0.33-0.22-0.22-1.19,0.11-1.36c2.81,0.11,4.73,0.16,7.09,0.16
			c2.25,0,4.16-0.06,6.98-0.16c0.34,0.16,0.45,1.14,0.11,1.36l-1.41,0.11c-3.32,0.27-3.43,1.2-3.43,6.94v19.31
			c0,5.75,0.11,6.51,3.43,6.89l1.41,0.16c0.34,0.22,0.22,1.2-0.11,1.36c-2.81-0.11-4.72-0.16-6.98-0.16c-2.36,0-4.27,0.05-7.09,0.16
			c-0.34-0.16-0.45-1.03-0.11-1.36l1.41-0.16c3.32-0.38,3.43-1.14,3.43-6.89V119.32z"/>
		<path d="M374.02,131.31c0-2.11,0-2.38-1.52-3.36l-0.51-0.33c-0.23-0.22-0.23-0.81,0.06-0.98c1.29-0.43,4.5-1.84,5.62-2.66
			c0.22,0,0.51,0.11,0.62,0.38c-0.11,1.25-0.11,2.06-0.11,2.55c0,0.32,0.23,0.59,0.62,0.59c2.36-1.41,5.01-2.77,7.87-2.77
			c4.67,0,6.58,3.09,6.58,6.73v9.33c0,3.91,0.11,4.45,2.14,4.72l1.24,0.16c0.4,0.27,0.28,1.2-0.11,1.36
			c-1.69-0.11-3.32-0.16-5.29-0.16c-2.03,0-3.71,0.05-5.23,0.16c-0.39-0.16-0.5-1.09-0.11-1.36l1.07-0.16
			c2.08-0.33,2.14-0.81,2.14-4.72v-8.08c0-3.1-1.46-5.37-5.28-5.37c-2.14,0-3.99,0.87-4.78,1.9c-0.73,0.92-0.84,1.68-0.84,3.25v8.3
			c0,3.91,0.11,4.4,2.13,4.72l1.01,0.16c0.4,0.27,0.28,1.2-0.11,1.36c-1.51-0.11-3.15-0.16-5.11-0.16c-2.03,0-3.71,0.05-5.29,0.16
			c-0.39-0.16-0.51-1.09-0.11-1.36l1.18-0.16c2.08-0.27,2.14-0.81,2.14-4.72V131.31z"/>
		<path d="M408.15,127.78c-0.95,0-1.01,0.17-1.01,1.31v10.14c0,3.15,0.4,6.02,4.11,6.02c0.56,0,1.07-0.11,1.52-0.27
			c0.51-0.16,1.24-0.76,1.41-0.76c0.45,0,0.68,0.6,0.56,0.92c-1.01,1.14-3.04,2.5-5.91,2.5c-4.83,0-5.84-2.6-5.84-5.86v-12.42
			c0-1.46-0.06-1.57-1.18-1.57h-1.58c-0.34-0.22-0.39-0.81-0.17-1.14c1.63-0.49,3.03-1.19,3.6-1.68c0.73-0.65,1.8-2.12,2.36-3.2
			c0.28-0.11,0.95-0.11,1.18,0.27v2.44c0,0.98,0.05,1.03,1.01,1.03h6.24c0.68,0.49,0.56,1.95,0.06,2.28H408.15z"/>
		<path d="M422.6,132.99c-1.46,0-1.52,0.11-1.52,1.46c0,5.48,3.32,10.14,9.34,10.14c1.86,0,3.43-0.54,5.17-2.66
			c0.56-0.16,0.96,0.16,1.01,0.65c-1.86,3.69-5.91,5.04-8.83,5.04c-3.65,0-6.52-1.52-8.15-3.58c-1.69-2.12-2.36-4.66-2.36-7.05
			c0-6.67,4.55-12.26,11.3-12.26c4.83,0,7.98,3.21,7.98,6.46c0,0.76-0.11,1.19-0.23,1.41c-0.17,0.33-0.96,0.38-3.32,0.38H422.6z
			 M426.09,131.37c4.17,0,5.4-0.22,5.85-0.54c0.17-0.11,0.34-0.33,0.34-1.03c0-1.52-1.07-3.42-4.33-3.42
			c-3.32,0-6.18,2.93-6.24,4.72c0,0.11,0,0.27,0.39,0.27H426.09z"/>
		<path d="M443.07,131.31c0-2.11,0-2.38-1.52-3.36l-0.5-0.33c-0.23-0.22-0.23-0.81,0.06-0.98c1.29-0.43,4.27-1.84,5.68-2.66
			c0.28,0.05,0.45,0.16,0.45,0.38v3.14c0,0.27,0.06,0.44,0.17,0.49c1.97-1.57,4.11-3.26,6.18-3.26c1.41,0,2.53,0.87,2.53,2.17
			c0,1.79-1.52,2.49-2.42,2.49c-0.56,0-0.84-0.16-1.24-0.38c-0.84-0.54-1.69-0.87-2.48-0.87c-0.9,0-1.57,0.49-2.02,1.09
			c-0.56,0.76-0.73,2.33-0.73,4.18v7.38c0,3.91,0.11,4.56,2.25,4.72l2.02,0.16c0.39,0.27,0.28,1.2-0.11,1.36
			c-2.64-0.11-4.28-0.16-6.24-0.16c-2.02,0-3.71,0.05-5.17,0.16c-0.39-0.16-0.51-1.09-0.11-1.36l1.07-0.16
			c2.08-0.33,2.14-0.81,2.14-4.72V131.31z"/>
		<path d="M461.74,131.31c0-2.11,0-2.38-1.52-3.36l-0.5-0.33c-0.23-0.22-0.23-0.81,0.06-0.98c1.29-0.43,4.5-1.84,5.62-2.66
			c0.22,0,0.5,0.11,0.62,0.38c-0.11,1.25-0.11,2.06-0.11,2.55c0,0.32,0.23,0.59,0.62,0.59c2.36-1.41,5-2.77,7.87-2.77
			c4.67,0,6.58,3.09,6.58,6.73v9.33c0,3.91,0.11,4.45,2.14,4.72l1.24,0.16c0.39,0.27,0.28,1.2-0.12,1.36
			c-1.69-0.11-3.32-0.16-5.29-0.16c-2.02,0-3.71,0.05-5.23,0.16c-0.39-0.16-0.51-1.09-0.11-1.36l1.07-0.16
			c2.08-0.33,2.13-0.81,2.13-4.72v-8.08c0-3.1-1.46-5.37-5.29-5.37c-2.13,0-3.99,0.87-4.78,1.9c-0.73,0.92-0.84,1.68-0.84,3.25v8.3
			c0,3.91,0.11,4.4,2.14,4.72l1.01,0.16c0.39,0.27,0.28,1.2-0.11,1.36c-1.52-0.11-3.15-0.16-5.12-0.16c-2.02,0-3.71,0.05-5.29,0.16
			c-0.39-0.16-0.51-1.09-0.11-1.36l1.18-0.16c2.08-0.27,2.14-0.81,2.14-4.72V131.31z"/>
		<path d="M499.08,135.65c0.84-0.27,0.9-0.76,0.95-1.57l0.06-2.5c0.06-2.01-0.62-4.72-4.1-4.72c-1.58,0-3.49,0.76-3.6,2.44
			c-0.06,0.87-0.11,1.52-0.56,1.85c-0.85,0.65-2.36,1.03-3.21,1.03c-0.51,0-0.79-0.27-0.79-0.76c0-2.82,6.36-6.68,10.46-6.68
			c4.05,0,6.02,2.28,5.85,6.35l-0.34,9.44c-0.11,2.5,0.39,4.72,2.59,4.72c0.56,0,1.07-0.16,1.4-0.33c0.28-0.16,0.56-0.38,0.73-0.38
			c0.22,0,0.39,0.33,0.39,0.71c0,0.27-1.97,2.39-4.73,2.39c-1.35,0-2.7-0.49-3.66-1.68c-0.22-0.32-0.56-0.76-0.9-0.76
			c-0.39,0-1.07,0.49-2.19,1.08c-1.24,0.65-2.48,1.36-4.05,1.36c-1.63,0-2.98-0.44-3.94-1.25c-1.07-0.92-1.74-2.28-1.74-3.79
			c0-2.12,1.07-3.37,4.67-4.61L499.08,135.65z M495.59,145.2c1.13,0,2.87-0.81,3.43-1.36c0.67-0.65,0.73-1.41,0.73-2.55l0.11-3.2
			c0-0.59-0.22-0.71-0.56-0.71c-0.34,0-1.3,0.22-2.31,0.54c-3.31,1.09-4.95,1.9-4.95,4.02C492.05,142.87,492.72,145.2,495.59,145.2z
			"/>
		<path d="M518.59,127.78c-0.96,0-1.01,0.17-1.01,1.31v10.14c0,3.15,0.39,6.02,4.1,6.02c0.56,0,1.07-0.11,1.52-0.27
			c0.51-0.16,1.24-0.76,1.41-0.76c0.45,0,0.67,0.6,0.57,0.92c-1.01,1.14-3.04,2.5-5.91,2.5c-4.84,0-5.85-2.6-5.85-5.86v-12.42
			c0-1.46-0.06-1.57-1.18-1.57h-1.57c-0.34-0.22-0.39-0.81-0.17-1.14c1.63-0.49,3.04-1.19,3.6-1.68c0.73-0.65,1.8-2.12,2.36-3.2
			c0.28-0.11,0.96-0.11,1.18,0.27v2.44c0,0.98,0.06,1.03,1.01,1.03h6.24c0.68,0.49,0.56,1.95,0.05,2.28H518.59z"/>
		<path d="M531.24,131.31c0-2.11,0-2.38-1.52-3.36l-0.51-0.33c-0.23-0.22-0.23-0.81,0.06-0.98c1.29-0.43,4.5-1.84,5.79-2.66
			c0.28,0,0.51,0.11,0.56,0.32c-0.11,1.9-0.22,4.51-0.22,6.73v9.76c0,3.91,0.12,4.45,2.14,4.72l1.18,0.16
			c0.4,0.27,0.29,1.2-0.11,1.36c-1.69-0.11-3.32-0.16-5.28-0.16c-2.03,0-3.71,0.05-5.29,0.16c-0.39-0.16-0.51-1.09-0.11-1.36
			l1.18-0.16c2.08-0.27,2.13-0.81,2.13-4.72V131.31z M535.86,113.74c0,1.9-1.41,2.77-2.93,2.77c-1.74,0-2.87-1.19-2.87-2.66
			c0-1.79,1.41-2.88,3.04-2.88C534.78,110.96,535.86,112.22,535.86,113.74z"/>
		<path d="M565.55,135.97c0,6.78-4.84,11.67-11.87,11.67c-6.47,0-11.53-4.4-11.53-11.17c0-6.84,5.34-11.72,11.98-11.72
			C560.43,124.74,565.55,129.3,565.55,135.97z M553.45,126.37c-3.71,0-6.47,3.42-6.47,9.38c0,4.94,2.31,10.25,7.26,10.25
			c4.95,0,6.47-4.99,6.47-9.17C560.71,132.23,558.8,126.37,553.45,126.37z"/>
		<path d="M573.02,131.31c0-2.11,0-2.38-1.52-3.36l-0.51-0.33c-0.23-0.22-0.23-0.81,0.05-0.98c1.29-0.43,4.5-1.84,5.62-2.66
			c0.22,0,0.51,0.11,0.62,0.38c-0.11,1.25-0.11,2.06-0.11,2.55c0,0.32,0.23,0.59,0.62,0.59c2.36-1.41,5.01-2.77,7.88-2.77
			c4.67,0,6.58,3.09,6.58,6.73v9.33c0,3.91,0.11,4.45,2.14,4.72l1.23,0.16c0.39,0.27,0.28,1.2-0.11,1.36
			c-1.69-0.11-3.32-0.16-5.29-0.16c-2.02,0-3.71,0.05-5.23,0.16c-0.39-0.16-0.51-1.09-0.11-1.36l1.07-0.16
			c2.08-0.33,2.14-0.81,2.14-4.72v-8.08c0-3.1-1.46-5.37-5.29-5.37c-2.14,0-3.99,0.87-4.78,1.9c-0.73,0.92-0.84,1.68-0.84,3.25v8.3
			c0,3.91,0.11,4.4,2.14,4.72l1.01,0.16c0.4,0.27,0.28,1.2-0.11,1.36c-1.52-0.11-3.15-0.16-5.12-0.16c-2.03,0-3.71,0.05-5.29,0.16
			c-0.39-0.16-0.51-1.09-0.11-1.36l1.18-0.16c2.08-0.27,2.14-0.81,2.14-4.72V131.31z"/>
		<path d="M610.36,135.65c0.84-0.27,0.9-0.76,0.96-1.57l0.05-2.5c0.06-2.01-0.62-4.72-4.11-4.72c-1.57,0-3.49,0.76-3.6,2.44
			c-0.05,0.87-0.11,1.52-0.56,1.85c-0.84,0.65-2.36,1.03-3.2,1.03c-0.51,0-0.79-0.27-0.79-0.76c0-2.82,6.36-6.68,10.46-6.68
			c4.05,0,6.02,2.28,5.85,6.35l-0.34,9.44c-0.11,2.5,0.39,4.72,2.58,4.72c0.57,0,1.07-0.16,1.41-0.33c0.28-0.16,0.56-0.38,0.73-0.38
			c0.23,0,0.39,0.33,0.39,0.71c0,0.27-1.96,2.39-4.72,2.39c-1.35,0-2.7-0.49-3.65-1.68c-0.23-0.32-0.56-0.76-0.91-0.76
			c-0.39,0-1.06,0.49-2.19,1.08c-1.23,0.65-2.47,1.36-4.05,1.36c-1.63,0-2.98-0.44-3.94-1.25c-1.07-0.92-1.75-2.28-1.75-3.79
			c0-2.12,1.07-3.37,4.67-4.61L610.36,135.65z M606.88,145.2c1.12,0,2.87-0.81,3.43-1.36c0.68-0.65,0.73-1.41,0.73-2.55l0.11-3.2
			c0-0.59-0.23-0.71-0.56-0.71c-0.34,0-1.29,0.22-2.31,0.54c-3.32,1.09-4.95,1.9-4.95,4.02C603.33,142.87,604.01,145.2,606.88,145.2
			z"/>
		<path d="M628.86,140.8c0,3.91,0.12,4.45,2.14,4.72l1.35,0.16c0.4,0.27,0.28,1.2-0.11,1.36c-1.86-0.11-3.48-0.16-5.46-0.16
			c-2.02,0-3.71,0.05-5.4,0.16c-0.39-0.16-0.5-1.09-0.11-1.36l1.29-0.16c2.08-0.27,2.14-0.81,2.14-4.72v-24.52
			c0-3.2-0.06-3.52-1.74-4.5l-0.57-0.32c-0.28-0.16-0.28-0.92,0-1.08c1.41-0.43,4.05-1.25,6.07-2.28c0.22,0,0.45,0.11,0.56,0.32
			c-0.06,1.63-0.17,4.34-0.17,6.73V140.8z"/>
		<path d="M661.03,135.65c0.85-0.27,0.9-0.76,0.96-1.57l0.06-2.5c0.05-2.01-0.62-4.72-4.11-4.72c-1.58,0-3.49,0.76-3.6,2.44
			c-0.06,0.87-0.12,1.52-0.56,1.85c-0.84,0.65-2.36,1.03-3.21,1.03c-0.51,0-0.79-0.27-0.79-0.76c0-2.82,6.36-6.68,10.46-6.68
			c4.04,0,6.02,2.28,5.85,6.35l-0.34,9.44c-0.11,2.5,0.39,4.72,2.58,4.72c0.57,0,1.07-0.16,1.41-0.33c0.28-0.16,0.56-0.38,0.73-0.38
			c0.22,0,0.39,0.33,0.39,0.71c0,0.27-1.96,2.39-4.72,2.39c-1.35,0-2.7-0.49-3.65-1.68c-0.22-0.32-0.56-0.76-0.9-0.76
			c-0.4,0-1.07,0.49-2.19,1.08c-1.24,0.65-2.47,1.36-4.05,1.36c-1.63,0-2.98-0.44-3.94-1.25c-1.07-0.92-1.74-2.28-1.74-3.79
			c0-2.12,1.07-3.37,4.67-4.61L661.03,135.65z M657.54,145.2c1.13,0,2.87-0.81,3.44-1.36c0.68-0.65,0.73-1.41,0.73-2.55l0.11-3.2
			c0-0.59-0.22-0.71-0.56-0.71c-0.34,0-1.29,0.22-2.3,0.54c-3.32,1.09-4.95,1.9-4.95,4.02C654,142.87,654.68,145.2,657.54,145.2z"/>
		<path d="M675.93,131.31c0-2.11,0-2.38-1.52-3.36l-0.5-0.33c-0.22-0.22-0.22-0.81,0.06-0.98c1.29-0.43,4.5-1.84,5.62-2.66
			c0.22,0,0.51,0.11,0.62,0.38c-0.11,1.25-0.11,2.06-0.11,2.55c0,0.32,0.22,0.59,0.62,0.59c2.36-1.41,5.01-2.77,7.88-2.77
			c4.66,0,6.58,3.09,6.58,6.73v9.33c0,3.91,0.11,4.45,2.13,4.72l1.24,0.16c0.39,0.27,0.28,1.2-0.11,1.36
			c-1.69-0.11-3.32-0.16-5.29-0.16c-2.02,0-3.71,0.05-5.23,0.16c-0.39-0.16-0.51-1.09-0.12-1.36l1.07-0.16
			c2.09-0.33,2.14-0.81,2.14-4.72v-8.08c0-3.1-1.47-5.37-5.29-5.37c-2.14,0-3.99,0.87-4.78,1.9c-0.73,0.92-0.84,1.68-0.84,3.25v8.3
			c0,3.91,0.11,4.4,2.13,4.72l1.01,0.16c0.4,0.27,0.28,1.2-0.12,1.36c-1.51-0.11-3.14-0.16-5.11-0.16c-2.02,0-3.71,0.05-5.29,0.16
			c-0.4-0.16-0.51-1.09-0.11-1.36l1.18-0.16c2.08-0.27,2.13-0.81,2.13-4.72V131.31z"/>
		<path d="M723.79,138.96c0,4.28,0.06,6.29,1.63,6.29c0.62,0,1.58-0.27,2.42-0.54c0.39,0.11,0.45,1.46-0.05,1.73
			c-2.36,0.33-5.85,1.14-7.42,1.74c-0.34,0-0.62-0.16-0.62-0.43v-0.93c0-0.81,0-1.46-0.12-1.68h-0.22c-2.48,1.63-4.39,2.5-7.09,2.5
			c-6.24,0-10.41-4.72-10.41-10.42c0-7.6,5.96-12.48,13.61-12.48c1.91,0,3.15,0.27,3.77,0.49c0.28,0,0.34-0.33,0.34-0.76v-8.2
			c0-3.2-0.06-3.52-1.75-4.5l-0.56-0.32c-0.28-0.16-0.28-0.92,0-1.08c1.41-0.43,4.05-1.25,6.08-2.28c0.22,0,0.45,0.11,0.56,0.32
			c-0.06,1.63-0.17,4.34-0.17,6.73V138.96z M719.63,130.82c0-1.09-0.22-1.57-0.62-2.12c-0.84-1.14-2.53-2.28-4.72-2.28
			c-5.11,0-7.76,4.29-7.76,9.01c0,4.94,2.87,9.61,8.38,9.61c1.52,0,3.43-0.65,4.33-1.53c0.34-0.32,0.4-1.13,0.4-2V130.82z"/>
		<path d="M754.44,138.74c0,5.7,0.11,6.4,3.71,6.78l1.52,0.16c0.34,0.27,0.23,1.2-0.11,1.36c-3.21-0.11-5.06-0.16-7.31-0.16
			c-2.36,0-4.39,0.05-6.86,0.16c-0.34-0.16-0.45-1.03-0.12-1.36l1.18-0.16c3.26-0.43,3.38-1.09,3.38-6.78v-20.02
			c0-4.61-0.11-5.59-2.64-5.8l-2.03-0.22c-0.39-0.33-0.34-1.14,0.11-1.36c2.98-0.38,6.46-0.43,11.14-0.43
			c4.66,0,8.15,0.6,10.79,2.17c2.59,1.57,4.5,4.4,4.5,8.14c0,4.99-3.21,7.48-5.62,8.62c-2.47,1.14-5.45,1.63-7.76,1.63
			c-0.39-0.16-0.39-0.98-0.05-1.08c6.07-1.09,8.27-4.39,8.27-9.11c0-5.26-3.21-8.68-9.06-8.68c-2.98,0-3.03,0.22-3.03,1.96V138.74z"
			/>
		<path d="M780.77,138.9c0,3.74,0.95,6.24,5.23,6.24c1.52,0,3.32-0.6,4.55-1.63c0.73-0.64,1.13-1.46,1.13-3.14v-8.89
			c0-3.52-0.39-3.63-2.08-4.29l-0.73-0.27c-0.39-0.22-0.39-0.98,0.06-1.2c2.25-0.06,5.34-0.44,6.58-0.98
			c0.28,0.06,0.45,0.16,0.51,0.38c-0.11,1.03-0.17,2.71-0.17,4.72v9.12c0,4.28,0.17,5.91,1.74,5.91c0.68,0,1.41-0.11,2.2-0.27
			c0.34,0.27,0.39,1.36-0.06,1.58c-2.2,0.44-5.46,0.98-7.37,2.01c-0.28,0-0.56-0.16-0.67-0.38v-2.22c0-0.49-0.17-0.76-0.51-0.76
			c-1.69,1.03-4.44,2.82-7.76,2.82c-4.95,0-6.8-2.39-6.8-6.79v-9.06c0-3.42,0-3.9-1.69-4.61l-0.67-0.27
			c-0.34-0.27-0.28-1.04,0.11-1.2c2.59-0.06,4.78-0.54,6.02-0.98c0.34,0.06,0.5,0.16,0.56,0.38c-0.11,0.93-0.16,2.06-0.16,4.72
			V138.9z"/>
		<path d="M804.83,116.28c0-3.2-0.06-3.52-1.74-4.5l-0.56-0.32c-0.28-0.16-0.28-0.92,0-1.08c1.3-0.49,3.99-1.19,6.13-2.28
			c0.23,0,0.45,0.11,0.57,0.32c-0.12,1.9-0.23,4.34-0.23,6.73v10.25c0,0.92,0.23,1.14,0.56,1.14c1.46-0.81,3.71-1.79,6.47-1.79
			c6.41,0,10.74,4.67,10.74,10.63c0,7.21-5.4,12.26-12.93,12.26c-2.08,0-3.66-0.33-4.78-0.71c-1.18-0.32-1.91-0.71-2.36-0.71
			c-0.45,0-0.9,0.44-1.18,0.82c-0.06,0.05-0.11,0.05-0.22,0.05c-0.23,0-0.46-0.11-0.57-0.33c0.05-0.76,0.11-1.79,0.11-4.61V116.28z
			 M808.99,139.5c0,1.9,0.45,3.58,1.41,4.72c0.96,1.14,2.47,1.79,4.28,1.79c5.29,0,7.36-4.34,7.36-9c0-5.59-2.98-9.93-8.54-9.93
			c-1.69,0-3.04,0.38-3.82,0.87c-0.56,0.37-0.68,0.97-0.68,3.09V139.5z"/>
		<path d="M837.84,140.8c0,3.91,0.11,4.45,2.14,4.72l1.35,0.16c0.39,0.27,0.28,1.2-0.11,1.36c-1.86-0.11-3.48-0.16-5.46-0.16
			c-2.03,0-3.71,0.05-5.4,0.16c-0.39-0.16-0.51-1.09-0.11-1.36l1.29-0.16c2.08-0.27,2.14-0.81,2.14-4.72v-24.52
			c0-3.2-0.06-3.52-1.74-4.5l-0.57-0.32c-0.28-0.16-0.28-0.92,0-1.08c1.41-0.43,4.05-1.25,6.07-2.28c0.22,0,0.45,0.11,0.56,0.32
			c-0.06,1.63-0.17,4.34-0.17,6.73V140.8z"/>
		<path d="M848.13,131.31c0-2.11,0-2.38-1.52-3.36l-0.5-0.33c-0.22-0.22-0.22-0.81,0.06-0.98c1.29-0.43,4.5-1.84,5.79-2.66
			c0.29,0,0.51,0.11,0.57,0.32c-0.11,1.9-0.23,4.51-0.23,6.73v9.76c0,3.91,0.11,4.45,2.13,4.72l1.18,0.16
			c0.4,0.27,0.29,1.2-0.11,1.36c-1.69-0.11-3.31-0.16-5.29-0.16c-2.02,0-3.71,0.05-5.28,0.16c-0.39-0.16-0.51-1.09-0.12-1.36
			l1.19-0.16c2.08-0.27,2.13-0.81,2.13-4.72V131.31z M852.75,113.74c0,1.9-1.41,2.77-2.93,2.77c-1.74,0-2.87-1.19-2.87-2.66
			c0-1.79,1.4-2.88,3.04-2.88C851.67,110.96,852.75,112.22,852.75,113.74z"/>
		<path d="M877.71,125.67c0.45,0.38,0.84,1.25,0.84,2.17c0,0.98-0.56,2-1.24,2c-0.28,0-0.56-0.11-0.79-0.38
			c-1.23-1.47-3.32-2.88-5.62-2.88c-3.94,0-7.76,2.98-7.76,8.73c0,4.23,3.04,9.27,9.05,9.27c3.26,0,4.95-1.41,6.24-3.25
			c0.45-0.11,0.95,0.27,1.01,0.76c-1.91,4.01-6.13,5.53-9.4,5.53c-2.97,0-5.73-0.92-7.7-2.77c-1.97-1.85-3.26-4.5-3.26-8.03
			c0-5.86,4.28-12.1,13.61-12.1C874,124.74,876.19,125.02,877.71,125.67z"/>
		<path d="M916.51,134.29c-0.39-1.2-0.62-1.36-2.3-1.36h-8.49c-1.41,0-1.74,0.16-2.14,1.3l-1.96,5.7c-0.85,2.44-1.24,3.9-1.24,4.5
			c0,0.65,0.28,0.98,1.63,1.09l1.86,0.16c0.39,0.27,0.39,1.14-0.11,1.36c-1.46-0.11-3.2-0.11-5.85-0.16c-1.86,0-3.88,0.11-5.4,0.16
			c-0.34-0.22-0.45-1.09-0.11-1.36l1.85-0.16c1.35-0.11,2.59-0.71,3.38-2.66c1.01-2.5,2.59-6.02,4.95-12.1l5.74-14.65
			c0.79-1.95,1.13-2.98,0.96-3.85c1.35-0.38,2.3-1.36,2.92-2.06c0.34,0,0.73,0.11,0.84,0.49c0.73,2.39,1.63,4.88,2.47,7.27
			l7.71,21.8c1.63,4.67,2.36,5.48,4.78,5.75l1.51,0.16c0.39,0.27,0.29,1.14,0,1.36c-2.3-0.11-4.27-0.16-6.8-0.16
			c-2.7,0-4.83,0.11-6.47,0.16c-0.45-0.22-0.51-1.09-0.11-1.36l1.63-0.16c1.18-0.11,1.97-0.43,1.97-0.98c0-0.59-0.28-1.57-0.73-2.88
			L916.51,134.29z M905.38,129.47c-0.45,1.24-0.39,1.3,1.18,1.3h6.92c1.63,0,1.74-0.22,1.23-1.68l-3.04-8.84
			c-0.45-1.31-0.96-2.77-1.3-3.42h-0.11c-0.17,0.27-0.73,1.58-1.35,3.2L905.38,129.47z"/>
		<path d="M939.12,127.78c-0.96,0-0.96,0.11-0.96,1.57v11.45c0,3.91,0.11,4.56,2.14,4.72l2.03,0.16c0.39,0.27,0.28,1.2-0.12,1.36
			c-2.53-0.11-4.16-0.16-6.13-0.16c-2.02,0-3.71,0.05-5.4,0.16c-0.39-0.16-0.51-1.09-0.11-1.36l1.29-0.16
			c2.08-0.27,2.13-0.81,2.13-4.72v-11.45c0-1.46,0-1.57-1.12-1.57h-1.97c-0.34-0.22-0.39-0.7-0.17-1.03l2.42-1.14
			c0.45-0.22,0.84-0.54,0.84-1.09c0-3.14,0.39-6.51,1.75-9.55c1.4-3.09,4.55-6.89,10.12-6.89c2.98,0,5.51,1.3,5.51,3.25
			c0,1.09-1.06,1.96-2.13,1.96c-0.62,0-0.96-0.22-1.35-0.65c-1.07-1.2-2.65-2.38-4.5-2.38c-1.74,0-3.15,1.03-3.99,2.98
			c-1.01,2.49-1.24,6.45-1.24,9.16v1.58c0,1.46,0,1.52,0.96,1.52h6.41c0.62,0.54,0.22,2.06-0.4,2.28H939.12z"/>
		<path d="M955.42,127.78c-0.96,0-0.96,0.11-0.96,1.57v11.45c0,3.91,0.11,4.56,2.14,4.72l2.03,0.16c0.39,0.27,0.28,1.2-0.12,1.36
			c-2.53-0.11-4.16-0.16-6.13-0.16c-2.02,0-3.71,0.05-5.4,0.16c-0.39-0.16-0.5-1.09-0.11-1.36l1.29-0.16
			c2.08-0.27,2.14-0.81,2.14-4.72v-11.45c0-1.46,0-1.57-1.13-1.57h-1.96c-0.34-0.22-0.39-0.7-0.17-1.03l2.42-1.14
			c0.45-0.22,0.84-0.54,0.84-1.09c0-3.14,0.39-6.51,1.74-9.55c1.41-3.09,4.56-6.89,10.12-6.89c2.98,0,5.51,1.3,5.51,3.25
			c0,1.09-1.07,1.96-2.14,1.96c-0.62,0-0.96-0.22-1.35-0.65c-1.07-1.2-2.65-2.38-4.5-2.38c-1.74,0-3.15,1.03-3.99,2.98
			c-1.01,2.49-1.23,6.45-1.23,9.16v1.58c0,1.46,0,1.52,0.96,1.52h6.41c0.62,0.54,0.22,2.06-0.39,2.28H955.42z"/>
		<path d="M974.6,135.65c0.84-0.27,0.9-0.76,0.96-1.57l0.05-2.5c0.06-2.01-0.61-4.72-4.1-4.72c-1.57,0-3.49,0.76-3.6,2.44
			c-0.06,0.87-0.11,1.52-0.57,1.85c-0.84,0.65-2.36,1.03-3.2,1.03c-0.51,0-0.79-0.27-0.79-0.76c0-2.82,6.35-6.68,10.46-6.68
			c4.05,0,6.02,2.28,5.85,6.35l-0.34,9.44c-0.11,2.5,0.39,4.72,2.59,4.72c0.57,0,1.07-0.16,1.41-0.33c0.28-0.16,0.56-0.38,0.73-0.38
			c0.22,0,0.39,0.33,0.39,0.71c0,0.27-1.96,2.39-4.72,2.39c-1.35,0-2.7-0.49-3.65-1.68c-0.23-0.32-0.57-0.76-0.9-0.76
			c-0.39,0-1.07,0.49-2.2,1.08c-1.23,0.65-2.47,1.36-4.04,1.36c-1.63,0-2.98-0.44-3.94-1.25c-1.07-0.92-1.74-2.28-1.74-3.79
			c0-2.12,1.07-3.37,4.67-4.61L974.6,135.65z M971.11,145.2c1.12,0,2.87-0.81,3.43-1.36c0.68-0.65,0.74-1.41,0.74-2.55l0.11-3.2
			c0-0.59-0.23-0.71-0.56-0.71c-0.34,0-1.3,0.22-2.31,0.54c-3.32,1.09-4.95,1.9-4.95,4.02C967.57,142.87,968.25,145.2,971.11,145.2z
			"/>
		<path d="M989.5,131.31c0-2.11,0-2.38-1.52-3.36l-0.51-0.33c-0.22-0.22-0.22-0.81,0.06-0.98c1.29-0.43,4.5-1.84,5.79-2.66
			c0.28,0,0.5,0.11,0.56,0.32c-0.11,1.9-0.22,4.51-0.22,6.73v9.76c0,3.91,0.11,4.45,2.13,4.72l1.19,0.16
			c0.39,0.27,0.28,1.2-0.11,1.36c-1.69-0.11-3.32-0.16-5.29-0.16c-2.02,0-3.71,0.05-5.29,0.16c-0.39-0.16-0.5-1.09-0.11-1.36
			l1.18-0.16c2.08-0.27,2.14-0.81,2.14-4.72V131.31z M994.11,113.74c0,1.9-1.41,2.77-2.92,2.77c-1.74,0-2.87-1.19-2.87-2.66
			c0-1.79,1.41-2.88,3.04-2.88C993.05,110.96,994.11,112.22,994.11,113.74z"/>
		<path d="M1003.95,131.31c0-2.11,0-2.38-1.52-3.36l-0.51-0.33c-0.22-0.22-0.22-0.81,0.06-0.98c1.29-0.43,4.27-1.84,5.68-2.66
			c0.28,0.05,0.45,0.16,0.45,0.38v3.14c0,0.27,0.06,0.44,0.17,0.49c1.97-1.57,4.1-3.26,6.18-3.26c1.41,0,2.53,0.87,2.53,2.17
			c0,1.79-1.52,2.49-2.41,2.49c-0.56,0-0.85-0.16-1.24-0.38c-0.84-0.54-1.69-0.87-2.48-0.87c-0.9,0-1.57,0.49-2.02,1.09
			c-0.56,0.76-0.73,2.33-0.73,4.18v7.38c0,3.91,0.12,4.56,2.25,4.72l2.02,0.16c0.39,0.27,0.28,1.2-0.11,1.36
			c-2.64-0.11-4.28-0.16-6.24-0.16c-2.03,0-3.71,0.05-5.18,0.16c-0.39-0.16-0.51-1.09-0.11-1.36l1.07-0.16
			c2.08-0.33,2.14-0.81,2.14-4.72V131.31z"/>
		<path d="M1032.52,125.72c0.51,1.2,0.9,2.93,0.9,4.39c-0.22,0.38-1.07,0.49-1.35,0.16c-0.96-2.38-2.64-3.96-4.95-3.96
			c-2.19,0-3.6,1.36-3.6,3.3c0,2.23,2.36,3.42,4.33,4.51c2.98,1.63,5.74,3.47,5.74,7.32c0,4.12-3.94,6.19-8.1,6.19
			c-2.64,0-4.61-0.54-6.02-1.63c-0.45-1.03-0.79-3.69-0.67-5.48c0.28-0.32,1.01-0.38,1.29-0.05c0.96,2.98,2.76,5.58,5.96,5.58
			c2.03,0,3.77-1.14,3.77-3.47c0-2.5-2.25-3.85-4.33-4.99c-3.26-1.79-5.57-3.69-5.57-6.67c0-3.96,3.38-6.19,7.65-6.19
			C1029.94,124.74,1032.02,125.29,1032.52,125.72z"/>
	</g>
	<path d="M141.43,72.35c-6.54-5.87-8.17-13.57-8.17-19.98c0-4.52,1.55-12.42,7.56-18.42c4.05-4.05,10.19-7.22,20.58-7.22
		c2.7,0,6.48,0.2,9.78,0.81c2.56,0.47,4.72,0.88,6.88,1.01c0.74,0.07,0.88,0.34,0.88,0.74c0,0.54-0.2,1.35-0.34,3.78
		c-0.13,2.23-0.13,5.94-0.2,6.95c-0.07,1.01-0.2,1.42-0.61,1.42c-0.47,0-0.54-0.47-0.54-1.42c0-2.63-1.08-5.4-2.83-6.88
		c-2.36-2.03-7.56-3.85-13.5-3.85c-8.97,0-13.16,2.63-15.52,4.93c-4.92,4.72-6.07,10.73-6.07,17.61c0,12.89,9.92,24.7,24.36,24.7
		c5.06,0,9.04-0.61,11.74-3.38c1.42-1.49,2.29-4.46,2.5-5.67c0.13-0.74,0.27-1.01,0.68-1.01c0.34,0,0.47,0.47,0.47,1.01
		c0,0.47-0.81,6.35-1.48,8.64c-0.4,1.28-0.54,1.42-1.75,1.96c-2.7,1.08-7.83,1.55-12.15,1.55
		C153.58,79.64,146.77,77.14,141.43,72.35z"/>
	<path d="M209.81,34.49c13.36,0,23.48,8.17,23.48,21.53c0,12.82-9.51,23.41-23.82,23.41c-16.26,0-23.21-12.21-23.21-22.54
		C186.26,47.65,193.41,34.49,209.81,34.49z M211.16,77.07c5.33,0,16.06-2.83,16.06-19.43c0-13.77-8.37-20.98-17.75-20.98
		c-9.92,0-17.07,6.21-17.07,18.69C192.4,68.71,200.43,77.07,211.16,77.07z"/>
	<path d="M251.12,62.16c0,8.44,0.13,11.88,1.21,12.89c0.95,0.95,3.24,1.35,7.89,1.35c3.11,0,5.74-0.07,7.16-1.75
		c0.74-0.88,1.21-2.09,1.42-3.24c0.07-0.41,0.27-0.74,0.6-0.74c0.27,0,0.41,0.27,0.41,0.88c0,0.61-0.41,4.05-0.88,5.74
		c-0.4,1.35-0.61,1.55-3.78,1.55c-4.25,0-7.56-0.07-10.33-0.21c-2.7-0.07-4.72-0.13-6.48-0.13c-0.27,0-1.28,0-2.43,0.07
		c-1.22,0.07-2.5,0.14-3.44,0.14c-0.61,0-0.94-0.14-0.94-0.47c0-0.2,0.13-0.47,0.47-0.47c0.54,0,1.28-0.13,1.82-0.27
		c1.15-0.27,1.28-1.35,1.55-3.04c0.34-2.36,0.34-6.89,0.34-12.42V51.9c0-8.91,0-10.53-0.13-12.35c-0.14-1.96-0.47-2.9-2.43-3.17
		c-0.47-0.07-1.48-0.13-2.02-0.13c-0.2,0-0.47-0.27-0.47-0.47c0-0.34,0.27-0.47,0.95-0.47c2.7,0,6.41,0.13,6.75,0.13
		c0.27,0,4.73-0.13,6.55-0.13c0.61,0,0.94,0.13,0.94,0.47c0,0.2-0.27,0.41-0.47,0.41c-0.41,0-1.28,0.07-1.96,0.14
		c-1.76,0.34-2.09,1.21-2.23,3.24c-0.07,1.82-0.07,3.44-0.07,12.35V62.16z"/>
	<path d="M278.46,51.9c0-8.91,0-10.53-0.13-12.35c-0.14-1.82-0.47-2.9-2.43-3.17c-0.47-0.07-1.48-0.13-2.03-0.13
		c-0.2,0-0.47-0.27-0.47-0.47c0-0.34,0.27-0.47,0.94-0.47c2.7,0,6.28,0.13,6.82,0.13c0.54,0,4.25-0.13,6.01-0.13
		c0.68,0,1.01,0.13,1.01,0.47c0,0.2-0.27,0.47-0.54,0.47c-0.4,0-0.74,0-1.48,0.13c-1.55,0.27-1.89,1.28-2.03,3.17
		c-0.13,1.82-0.14,3.44-0.13,12.35v8.03c0,8.3,1.82,11.74,4.39,14.04c2.9,2.63,5.47,3.1,8.84,3.1c3.65,0,7.15-1.62,9.18-4.05
		c2.77-3.31,3.37-8.03,3.37-13.9V51.9c0-8.91-0.07-10.53-0.13-12.35c-0.07-1.82-0.41-2.9-2.36-3.17c-0.47-0.07-1.49-0.13-2.03-0.13
		c-0.27,0-0.47-0.27-0.47-0.47c0-0.34,0.27-0.47,0.94-0.47c2.63,0,6.07,0.13,6.41,0.13c0.41,0,3.24-0.13,5-0.13
		c0.67,0,0.94,0.13,0.94,0.47c0,0.2-0.2,0.47-0.47,0.47c-0.41,0-0.75,0-1.49,0.13c-1.62,0.34-1.96,1.28-2.09,3.17
		c-0.13,1.82-0.07,3.44-0.07,12.35l0,6.14c0,6.21-0.81,13.16-5.53,17.21c-4.32,3.71-8.91,4.18-12.42,4.18
		c-1.96,0-8.16-0.14-12.35-4.05c-2.9-2.7-5.2-6.68-5.2-15.05L278.46,51.9z"/>
	<path d="M374.37,71.27c0.2,2.03,0.61,5.13,3.04,5.94c1.69,0.54,3.24,0.54,3.85,0.54c0.27,0,0.47,0.14,0.47,0.41
		c0,0.34-0.54,0.54-1.21,0.54c-1.35,0-7.96-0.14-10.12-0.34c-1.41-0.14-1.69-0.34-1.69-0.61c0-0.2,0.14-0.41,0.41-0.47
		c0.34-0.07,0.41-0.94,0.27-2.02l-2.83-29.02h-0.13l-14.31,29.29c-1.21,2.5-1.55,3.04-2.09,3.04c-0.54,0-0.88-0.54-2.03-2.63
		c-1.55-2.83-5.46-10.19-6.95-13.29c-1.75-3.64-6.55-13.29-7.56-15.66h-0.27l-2.29,25.91c-0.07,0.88-0.07,1.96-0.07,2.9
		c0,0.88,0.54,1.42,1.42,1.62c1.01,0.27,1.88,0.34,2.29,0.34c0.2,0,0.47,0.2,0.47,0.41c0,0.4-0.4,0.54-1.08,0.54
		c-2.23,0-5.06-0.2-5.53-0.2c-0.54,0-3.38,0.2-4.99,0.2c-0.61,0-1.01-0.14-1.01-0.54c0-0.2,0.27-0.41,0.61-0.41
		c0.47,0,0.88-0.07,1.76-0.2c1.96-0.34,2.02-2.43,2.29-4.59l4.32-37.45c0.07-0.61,0.34-1.01,0.67-1.01c0.41,0,0.88,0.2,1.21,0.88
		L351.22,71l17.28-35.56c0.27-0.54,0.54-0.94,0.94-0.94c0.41,0,0.74,0.47,0.88,1.55L374.37,71.27z"/>
	<path d="M392.27,51.9c0-8.91,0-10.53-0.14-12.35c-0.13-1.96-0.47-3.04-2.43-3.31c-0.47-0.07-1.49-0.14-2.02-0.14
		c-0.2,0-0.47-0.13-0.47-0.34c0-0.34,0.27-0.47,0.95-0.47c2.7,0,6.54,0.13,6.88,0.13c1.42,0,4.18-0.13,6.95-0.13
		c9.92,0,12.48,5.73,12.48,8.77c0,4.52-2.97,7.36-6,10.06c4.52,1.35,10.46,5.46,10.46,11.94c0,6.41-4.79,12.76-14.92,12.76
		c-1.08,0-3.24-0.07-5.13-0.21c-1.89-0.07-3.57-0.13-3.85-0.13c-0.13,0-1.21,0.07-2.43,0.07c-1.21,0.07-2.63,0.14-3.58,0.14
		c-0.61,0-0.95-0.14-0.95-0.47c0-0.2,0.14-0.34,0.47-0.34c0.54,0,1.28-0.2,1.82-0.27c1.15-0.2,1.28-1.48,1.55-3.17
		c0.34-2.36,0.34-6.89,0.34-12.42V51.9z M397.39,53.12c0,0.41,0.13,0.54,0.41,0.61c0.34,0.07,1.41,0.27,3.64,0.27
		c3.31,0,4.59-0.13,5.8-1.49c1.28-1.42,2.29-3.37,2.29-6.14c0-4.38-2.43-9.25-8.37-9.25c-0.67,0-2.09,0.07-3.03,0.27
		c-0.54,0.13-0.74,0.27-0.74,0.61L397.39,53.12z M397.39,59.46c0,4.46,0,11.34,0.07,12.22c0.2,2.77,0.2,3.44,2.03,4.32
		c1.62,0.74,4.11,0.81,5.19,0.81c3.92,0,8.71-1.49,8.71-8.84c0-2.57-1.01-7.49-5.67-10.46c-2.02-1.28-3.91-1.22-5.33-1.48
		c-0.74-0.14-3.71-0.14-4.66-0.14c-0.2,0-0.34,0.14-0.34,0.4L397.39,59.46z"/>
	<path d="M439.78,62.03c0,5.53,0,10.06,0.27,12.42c0.2,1.69,0.4,2.77,2.16,3.04c0.88,0.13,2.16,0.27,2.7,0.27
		c0.34,0,0.47,0.27,0.47,0.47c0,0.27-0.27,0.47-0.94,0.47c-3.31,0-7.15-0.2-7.43-0.2c-0.34,0-4.05,0.2-5.87,0.2
		c-0.61,0-0.94-0.14-0.94-0.47c0-0.2,0.13-0.47,0.47-0.47c0.54,0,1.28-0.13,1.82-0.27c1.15-0.27,1.35-1.35,1.55-3.04
		c0.27-2.36,0.34-6.88,0.34-12.42V51.9c0-8.91,0-10.53-0.13-12.35c-0.14-1.96-0.61-2.83-1.89-3.11c-0.67-0.13-1.42-0.2-1.82-0.2
		c-0.27,0-0.47-0.27-0.47-0.47c0-0.34,0.27-0.47,0.94-0.47c1.96,0,5.67,0.13,6.01,0.13c0.27,0,4.11-0.13,5.94-0.13
		c0.67,0,0.95,0.13,0.95,0.47c0,0.2-0.27,0.47-0.47,0.47c-0.41,0-0.81,0-1.48,0.13c-1.62,0.34-1.96,1.15-2.09,3.17
		c-0.06,1.82-0.07,3.44-0.07,12.35V62.03z"/>
	<path d="M472.38,36.45c0.74-1.89,1.01-2.23,1.42-2.23c0.6,0,0.81,0.81,1.41,2.09c1.08,2.43,10.6,26.12,14.24,34.82
		c2.16,5.13,3.78,5.87,5.06,6.27c0.88,0.27,1.76,0.34,2.36,0.34c0.34,0,0.74,0.13,0.74,0.47c0,0.34-0.67,0.47-1.35,0.47
		c-0.88,0-5.27,0-9.38-0.14c-1.15-0.07-2.09-0.07-2.09-0.4c0-0.27,0.13-0.27,0.4-0.41c0.34-0.13,0.95-0.6,0.54-1.55l-5.33-13.16
		c-0.14-0.27-0.21-0.34-0.54-0.34h-13.7c-0.27,0-0.47,0.13-0.61,0.47l-3.38,9.18c-0.54,1.42-0.88,2.84-0.88,3.85
		c0,1.15,1.01,1.55,2.02,1.55h0.54c0.47,0,0.61,0.2,0.61,0.47c0,0.34-0.34,0.47-0.88,0.47c-1.42,0-4.66-0.2-5.33-0.2
		c-0.61,0-3.58,0.2-6,0.2c-0.75,0-1.15-0.14-1.15-0.47c0-0.27,0.27-0.47,0.54-0.47c0.41,0,1.29-0.07,1.75-0.13
		c2.7-0.34,3.85-2.36,5-5.26L472.38,36.45z M479,60.34c0.27,0,0.27-0.13,0.2-0.41l-5.87-15.72c-0.34-0.88-0.67-0.88-1.01,0
		l-5.54,15.72c-0.06,0.27,0,0.41,0.21,0.41H479z"/>
	<path d="M543.79,78.27c-0.9-0.45-0.98-0.67-0.98-2.4c0-3.16,0.3-5.71,0.38-6.76c0-0.67,0.15-1.05,0.52-1.05
		c0.38,0,0.6,0.22,0.6,0.75c0,0.53,0,1.43,0.23,2.33c1.05,4.66,6.02,6.31,10.45,6.31c6.54,0,9.92-3.68,9.92-8.49
		c0-4.58-2.48-6.76-8.34-11.12l-3.01-2.25c-7.14-5.34-9.47-9.24-9.47-13.68c0-7.51,5.94-12.02,14.65-12.02
		c2.64,0,5.26,0.37,6.84,0.75c1.28,0.3,1.81,0.3,2.33,0.3c0.53,0,0.68,0.07,0.68,0.45c0,0.3-0.3,2.4-0.3,6.76
		c0,0.98-0.08,1.43-0.53,1.43c-0.45,0-0.52-0.31-0.6-0.83c-0.07-0.75-0.6-2.48-0.97-3.15c-0.45-0.76-2.63-3.16-8.57-3.16
		c-4.81,0-8.79,2.4-8.79,6.91c0,4.06,2.03,6.39,8.57,10.82l1.88,1.28c8.04,5.48,10.82,9.92,10.82,15.41c0,3.75-1.43,7.81-6.16,10.89
		c-2.78,1.8-6.91,2.26-10.52,2.26C550.33,80.01,546.5,79.55,543.79,78.27z"/>
	<path d="M593.25,60.62c0,6.16,0,11.2,0.3,13.82c0.23,1.88,0.45,3.08,2.4,3.38c0.98,0.15,2.41,0.3,3.01,0.3
		c0.38,0,0.52,0.3,0.52,0.53c0,0.3-0.3,0.53-1.05,0.53c-3.68,0-7.96-0.22-8.26-0.22c-0.38,0-4.51,0.22-6.54,0.22
		c-0.68,0-1.05-0.15-1.05-0.53c0-0.22,0.15-0.53,0.52-0.53c0.61,0,1.43-0.15,2.03-0.3c1.28-0.3,1.51-1.5,1.73-3.38
		c0.3-2.63,0.38-7.66,0.38-13.82V49.35c0-9.92,0-11.73-0.15-13.75c-0.15-2.18-0.67-3.16-2.1-3.46c-0.75-0.15-1.57-0.22-2.03-0.22
		c-0.3,0-0.53-0.3-0.53-0.53c0-0.38,0.3-0.53,1.05-0.53c2.18,0,6.31,0.15,6.69,0.15c0.3,0,4.58-0.15,6.61-0.15
		c0.75,0,1.05,0.15,1.05,0.53c0,0.22-0.3,0.53-0.52,0.53c-0.46,0-0.91,0-1.66,0.15c-1.81,0.38-2.18,1.28-2.33,3.53
		c-0.07,2.02-0.07,3.83-0.07,13.75V60.62z"/>
	<path d="M614.97,49.35c0-9.92,0-11.73-0.15-13.75c-0.15-2.18-0.53-3.23-2.71-3.53c-0.52-0.07-1.65-0.15-2.25-0.15
		c-0.23,0-0.53-0.3-0.53-0.53c0-0.38,0.3-0.53,1.05-0.53c3,0,7.13,0.15,7.66,0.15c1.43,0,6.39-0.15,9.4-0.15
		c8.49,0,11.5,2.63,12.62,3.61c1.5,1.35,3.3,4.21,3.3,7.66c0,9.17-6.91,15.25-17.05,15.25c-0.38,0-1.5,0-1.88-0.07
		c-0.3,0-0.67-0.3-0.67-0.6c0-0.53,0.37-0.67,1.73-0.67c7.14,0,12.25-4.51,12.25-10.3c0-2.11-0.23-6.24-3.76-9.69
		c-3.46-3.46-7.44-3.08-8.94-3.09c-1.13,0-3.01,0.3-3.68,0.45c-0.38,0.08-0.53,0.53-0.53,1.2v26c0,6.16,0,11.2,0.3,13.82
		c0.23,1.88,0.6,3.08,2.63,3.38c0.9,0.15,2.33,0.3,2.93,0.3c0.37,0,0.53,0.3,0.53,0.53c0,0.3-0.3,0.53-1.06,0.53
		c-3.61,0-7.96-0.22-8.26-0.22c-0.23,0-4.51,0.22-6.54,0.22c-0.68,0-1.05-0.15-1.05-0.53c0-0.22,0.15-0.53,0.52-0.53
		c0.6,0,1.43-0.15,2.03-0.3c1.28-0.3,1.43-1.5,1.73-3.38c0.38-2.63,0.38-7.66,0.38-13.82V49.35z"/>
	<path d="M666.01,32.14c0.82-2.1,1.13-2.48,1.58-2.48c0.68,0,0.9,0.9,1.59,2.33c1.2,2.7,11.79,29.08,15.85,38.77
		c2.4,5.71,4.21,6.54,5.64,6.99c0.97,0.3,1.96,0.38,2.63,0.38c0.38,0,0.83,0.15,0.83,0.53c0,0.38-0.75,0.53-1.5,0.53
		c-0.98,0-5.86,0-10.45-0.15c-1.28-0.07-2.33-0.07-2.33-0.45c0-0.3,0.15-0.3,0.45-0.45c0.37-0.15,1.05-0.67,0.6-1.72l-5.94-14.66
		c-0.16-0.3-0.23-0.37-0.6-0.37h-15.25c-0.3,0-0.52,0.15-0.67,0.53l-3.76,10.21c-0.6,1.58-0.98,3.16-0.98,4.29
		c0,1.28,1.13,1.72,2.26,1.72l0.6,0c0.52,0,0.68,0.23,0.68,0.53c0,0.38-0.38,0.53-0.98,0.53c-1.58,0-5.19-0.22-5.94-0.22
		c-0.68,0-3.98,0.22-6.68,0.22c-0.83,0-1.28-0.15-1.28-0.53c0-0.3,0.3-0.53,0.6-0.53c0.45,0,1.43-0.08,1.95-0.15
		c3.01-0.37,4.29-2.63,5.56-5.87L666.01,32.14z M673.37,58.74c0.3,0,0.3-0.15,0.23-0.45l-6.54-17.51c-0.38-0.97-0.75-0.97-1.13,0
		l-6.16,17.51c-0.07,0.3,0,0.45,0.22,0.45H673.37z"/>
	<line class="st0" x1="519.32" y1="24.31" x2="519.32" y2="87.31"/>
	<g>
		<rect x="25.33" y="73.47" class="st1" width="67.62" height="5.57"/>
		<path class="st1" d="M101.35,27.54C94.12,20.45,81.4,24.89,67,29.5c-0.81,0.26-1.65,0.03-2.38-0.56
			c-0.63-0.53-1.29-0.97-1.95-1.36c2.04-1.21,3.4-3.42,3.4-5.95c0-3.46-2.54-6.32-5.85-6.84l2.54-3.28c0.25-0.33,0.25-0.86,0-1.19
			l-3.16-4.08C59.47,6.08,59.3,6,59.14,6s-0.33,0.08-0.46,0.24l-3.16,4.08c-0.25,0.33-0.25,0.86,0,1.19l2.54,3.28
			c-3.31,0.52-5.85,3.38-5.85,6.84c0,2.54,1.37,4.75,3.4,5.95c-0.65,0.38-1.32,0.83-1.95,1.36c-0.73,0.58-1.57,0.82-2.38,0.56
			c-14.4-4.6-27.12-9.04-34.35-1.95c-8.66,8.49,1.42,22.22,4.59,27.87c2.22,3.96,3.8,8.58,3.8,12.25h33.82h33.82
			c0-3.67,1.57-8.28,3.8-12.25C99.93,49.76,110,36.03,101.35,27.54z M48.83,62.97c-2.62,0.17-4.78-2.25-5.61-5.56l2.15-5.02
			c0.24-0.55,0.08-1.07-0.29-1.43l-6.8-6.8c-0.38-0.38-0.74-0.4-0.92,0l-3.22,6.79c-0.25,0.58,0.02,1.03,0.37,1.42l5.07,5.12
			c1.06,4.03-1.67,5.5-3.22,5.5c-5.39,0-9.69-7.32-14.09-14.91c-4.32-7.45-5.85-12.9-2.59-17.02c5.44-6.87,19.73-1.43,30.83,3.62
			c-0.1,1.59,0.27,3.44,1.25,5.63C57.65,53.4,53.7,62.64,48.83,62.97z M95.99,48.1c-4.4,7.59-8.7,14.91-14.09,14.91
			c-1.54,0-4.28-1.46-3.22-5.5l5.07-5.12c0.35-0.39,0.61-0.84,0.37-1.42l-3.22-6.79c-0.18-0.4-0.54-0.38-0.92,0l-6.79,6.8
			c-0.36,0.36-0.53,0.88-0.29,1.43l2.14,5.02c-0.83,3.31-2.99,5.73-5.61,5.56c-4.86-0.33-8.82-9.58-2.96-22.64
			c0.99-2.19,1.36-4.04,1.25-5.63c11.11-5.06,25.39-10.49,30.84-3.62C101.83,35.19,100.32,40.65,95.99,48.1z"/>
	</g>
</g>
</svg>
