<?xml version="1.0" encoding="utf-8"?>
<!-- Generator: Adobe Illustrator 23.0.1, SVG Export Plug-In . SVG Version: 6.00 Build 0)  -->
<svg version="1.1" id="Layer_1" xmlns="http://www.w3.org/2000/svg" xmlns:xlink="http://www.w3.org/1999/xlink" x="0px" y="0px"
	 viewBox="0 0 1251.34 185.44" style="enable-background:new 0 0 1251.34 185.44;" xml:space="preserve">
<path d="M167.67,94.24c8.25,7.16,18.67,9.88,31.09,9.88c5.8,0,12.69-0.63,16.32-2.08c1.54-0.63,1.9-1.09,2.36-2.63
	c0.91-3.08,2-10.97,2-12.06c0-0.72-0.18-1.36-0.82-1.36c-0.73,0-0.91,0.36-1.18,1.81c-0.36,1.63-1.54,4.26-3.08,5.98
	c-3.63,4.17-8.52,5.08-16.59,5.08c-12.15,0-28.56-10.7-28.56-32.27c0-8.79,1.72-17.41,8.34-23.48c3.99-3.63,9.16-5.62,17.04-5.62
	c8.34,0,15.41,2.45,18.4,5.62c2.27,2.36,3.44,5.53,3.53,8.34c0,1.27,0.18,1.99,0.91,1.99c0.82,0,1-0.73,1.09-2.08
	c0.18-1.81,0.09-6.8,0.27-9.79c0.18-3.17,0.45-4.26,0.45-4.99c0-0.54-0.36-1-1.36-1.09c-2.72-0.27-5.62-1.09-9.06-1.54
	c-4.17-0.54-7.52-0.91-13.14-0.91c-13.51,0-22.12,3.63-28.65,9.61c-8.7,7.98-10.61,18.67-10.61,24.84
	C156.43,76.29,158.78,86.44,167.67,94.24z M292.82,72.77c0-17.37-11.76-28.37-30.64-28.37c-22.75,0-31.33,16.76-31.33,29.73
	c0,13.43,8.8,29.73,30.57,29.73C280.69,103.87,292.82,90.14,292.82,72.77z M241.32,71.78c0-18.89,9.94-23.74,18.66-23.74
	c12.44,0,22.22,10.54,22.22,27.53c0,21.92-12.29,24.5-17.6,24.5C250.04,100.07,241.32,87.56,241.32,71.78z M342.44,90.97
	c-0.61,0-0.76,0.46-0.83,1.14c-0.15,1.44-1.06,3.57-1.97,4.55c-1.9,2.05-4.85,2.12-8.87,2.12c-5.92,0-7.89-0.53-9.18-1.67
	c-1.59-1.37-1.59-6.6-1.59-16.31V67.46c0-11.53,0-13.65,0.15-16.08c0.15-2.66,0.76-3.95,2.81-4.32c0.91-0.15,2.12-0.23,2.96-0.23
	c0.91,0,1.37-0.15,1.37-0.68c0-0.53-0.53-0.68-1.59-0.68c-2.96,0-8.49,0.23-10.32,0.23c-2.05,0-6.83-0.23-10.39-0.23
	c-1.14,0-1.67,0.15-1.67,0.68c0,0.53,0.46,0.68,1.29,0.68c0.99,0,1.9,0.08,2.5,0.23c2.5,0.53,3.11,1.74,3.26,4.32
	c0.15,2.42,0.15,4.55,0.15,16.08v13.35c0,6.98,0,12.97-0.38,16.16c-0.3,2.2-0.68,3.87-2.2,4.17c-0.68,0.15-1.59,0.31-2.73,0.31
	c-0.91,0-1.21,0.22-1.21,0.61c0,0.53,0.53,0.76,1.52,0.76c3.03,0,7.81-0.23,9.56-0.23c6.14,0,11.15,0.45,22.07,0.45
	c3.94,0,4.32-0.38,4.78-2.05c0.61-2.2,1.14-7.89,1.14-8.72C343.05,91.35,342.97,90.97,342.44,90.97z M404.24,75.58v-8.12
	c0-11.53,0-13.65,0.15-16.08c0.15-2.66,0.76-3.95,2.81-4.32c0.91-0.15,1.36-0.23,2.2-0.23c0.91,0,1.37-0.15,1.37-0.68
	c0-0.53-0.53-0.68-1.59-0.68c-2.96,0-7.74,0.23-8.65,0.23c-0.08,0-4.86-0.23-8.72-0.23c-1.06,0-1.59,0.15-1.59,0.68
	c0,0.53,0.46,0.68,1.29,0.68c0.83,0,2.12,0.08,2.73,0.23c2.5,0.53,3.11,1.74,3.26,4.32c0.15,2.42,0.15,4.55,0.15,16.08v9.48
	c0,7.81-0.23,14.64-4.4,18.81c-3.03,3.04-7.13,4.1-10.47,4.1c-2.58,0-6.07-0.3-9.48-3.11c-3.72-3.03-5.92-7.66-5.92-18.66V67.46
	c0-11.53,0-13.65,0.15-16.08c0.15-2.66,0.76-3.95,2.81-4.32c0.91-0.15,1.36-0.23,2.2-0.23c0.76,0,1.21-0.15,1.21-0.68
	c0-0.53-0.53-0.68-1.67-0.68c-2.73,0-7.51,0.23-9.33,0.23c-2.27,0-7.05-0.23-11.07-0.23c-1.14,0-1.67,0.15-1.67,0.68
	c0,0.53,0.45,0.68,1.29,0.68c1.06,0,2.35,0.08,2.96,0.23c2.5,0.53,3.11,1.74,3.26,4.32c0.15,2.42,0.15,4.55,0.15,16.08v11.07
	c0,11,2.88,16.61,6.75,20.1c5.54,5.01,12.82,5.23,16.84,5.23c4.93,0,10.39-0.83,15.78-5.46C403.4,92.94,404.24,84,404.24,75.58z
	 M492,101.44c-0.98,0-2.5-0.08-4.7-0.76c-2.28-0.68-3.03-2.89-3.72-7.66l-6.9-46.87c-0.23-1.59-0.68-2.35-1.36-2.35
	c-0.68,0-1.14,0.61-1.67,1.82l-20.63,43.31l-20.71-42.78c-0.99-1.97-1.44-2.35-2.05-2.35c-0.61,0-1.06,0.68-1.29,1.97l-7.51,49.45
	c-0.38,2.58-0.99,5.54-3.11,5.99c-1.14,0.23-1.67,0.23-2.28,0.23c-0.76,0-1.21,0.15-1.21,0.53c0,0.68,0.61,0.83,1.37,0.83
	c2.43,0,6.07-0.23,7.51-0.23c1.37,0,4.78,0.23,7.96,0.23c1.14,0,1.82-0.15,1.82-0.83c0-0.38-0.53-0.53-1.14-0.53
	c-0.76,0-1.82-0.08-3.19-0.38c-1.29-0.3-2.28-0.99-2.28-2.43c0-1.21,0.08-2.2,0.23-3.56l3.94-30.19h0.3
	c2.65,5.69,7.21,15.24,7.89,16.84c0.91,2.12,6.9,13.73,8.72,17.22c1.21,2.28,1.97,3.79,2.65,3.79c0.68,0,1.06-0.68,2.81-4.25
	L470,64.05h0.3l4.55,33.37c0.3,2.12,0.07,3.11-0.38,3.26c-0.53,0.22-0.83,0.45-0.83,0.83c0,0.45,0.46,0.68,2.2,0.83
	c3.03,0.23,13.5,0.46,15.4,0.46c1.06,0,1.97-0.23,1.97-0.83C493.21,101.52,492.68,101.44,492,101.44z M530.07,70.12
	c4.17-3.34,7.74-7.05,7.74-13.27c0-4.02-2.43-11.38-16.16-11.38c-2.58,0-5.54,0.23-9.25,0.23c-1.52,0-6.3-0.23-10.32-0.23
	c-1.14,0-1.67,0.15-1.67,0.68c0,0.53,0.46,0.68,1.29,0.68c1.06,0,2.35,0.08,2.96,0.23c2.5,0.53,3.11,1.74,3.26,4.32
	c0.15,2.42,0.15,4.55,0.15,16.08v13.35c0,6.98,0,12.97-0.38,16.16c-0.3,2.2-0.68,3.87-2.2,4.17c-0.68,0.15-1.59,0.31-2.73,0.31
	c-0.91,0-1.21,0.22-1.21,0.61c0,0.53,0.53,0.76,1.52,0.76c3.03,0,7.81-0.23,9.56-0.23c2.28,0,9.18,0.45,11,0.45
	c13.96,0,20.25-8.42,20.25-16.54C543.87,77.62,536.29,72.24,530.07,70.12z M517.17,50.02c0-0.84,0.15-1.14,0.68-1.29
	c0.76-0.15,1.44-0.15,2.5-0.15c6.52,0,9.48,6.67,9.48,11.76c0,3.71-1.14,6.45-3.11,8.04c-1.29,1.14-2.96,1.44-5.46,1.44
	c-1.74,0-2.88-0.08-3.57-0.23c-0.3-0.08-0.53-0.23-0.53-0.83V50.02z M525.37,99.62c-1.74,0-3.49-0.07-5.54-0.91
	c-2.43-0.99-2.66-2.28-2.66-7.28V73.45c0-0.38,0.15-0.53,0.46-0.53c1.14,0,1.9,0,3.26,0.08c2.96,0.15,4.7,0.68,6.3,1.82
	c5.76,4.02,7.36,10.39,7.36,15.09C534.54,97.8,528.78,99.62,525.37,99.62z M557.07,46.83c0.91,0,1.89,0.08,2.73,0.3
	c1.67,0.38,2.43,1.67,2.58,4.25c0.15,2.42,0.15,4.55,0.15,16.08v13.35c0,7.36,0,13.35-0.38,16.54c-0.23,2.2-0.68,3.49-2.2,3.79
	c-0.68,0.15-1.59,0.31-2.73,0.31c-0.91,0-1.21,0.22-1.21,0.61c0,0.53,0.53,0.76,1.52,0.76c3.03,0,7.81-0.23,9.56-0.23
	c2.05,0,6.83,0.23,11.83,0.23c0.83,0,1.44-0.23,1.44-0.76c0-0.38-0.38-0.61-1.21-0.61c-1.14,0-2.81-0.15-3.87-0.31
	c-2.27-0.3-2.81-1.67-3.03-3.72c-0.3-3.26-0.3-9.25-0.3-16.61V67.46c0-11.53,0-13.65,0.15-16.08c0.15-2.66,0.76-3.95,2.81-4.32
	c0.91-0.15,1.52-0.23,2.28-0.23c0.76,0,1.21-0.15,1.21-0.76c0-0.45-0.61-0.61-1.59-0.61c-2.88,0-7.36,0.23-9.26,0.23
	c-2.2,0-6.98-0.23-9.86-0.23c-1.21,0-1.82,0.15-1.82,0.61C555.86,46.68,556.31,46.83,557.07,46.83z M649.8,101.44
	c-0.91,0-2.05-0.08-3.18-0.31c-1.59-0.38-3.79-1.44-6.68-8.27c-4.86-11.53-16.99-42.47-18.81-46.65c-0.76-1.74-1.21-2.43-1.9-2.43
	c-0.76,0-1.21,0.84-2.13,3.03l-19.03,47.63c-1.52,3.79-2.96,6.37-6.45,6.83c-0.61,0.07-1.67,0.15-2.35,0.15
	c-0.61,0-0.91,0.15-0.91,0.61c0,0.6,0.46,0.76,1.44,0.76c3.94,0,8.11-0.23,8.95-0.23c2.35,0,5.61,0.23,8.04,0.23
	c0.83,0,1.29-0.15,1.29-0.76c0-0.46-0.23-0.61-1.14-0.61h-1.14c-2.35,0-3.04-0.99-3.04-2.35c0-0.91,0.38-2.73,1.14-4.63l4.1-10.85
	c0.15-0.45,0.3-0.61,0.68-0.61h16.91c0.38,0,0.61,0.15,0.76,0.53l6.07,16.08c0.38,0.91-0.15,1.6-0.68,1.75
	c-0.76,0.08-1.06,0.23-1.06,0.68c0,0.53,0.91,0.53,2.28,0.6c6.07,0.15,11.61,0.15,14.34,0.15c2.8,0,3.49-0.15,3.49-0.76
	C650.78,101.52,650.4,101.44,649.8,101.44z M624.16,79.22h-13.95c-0.3,0-0.38-0.23-0.3-0.53l6.98-18.66
	c0.07-0.3,0.22-0.68,0.45-0.68c0.23,0,0.3,0.38,0.38,0.68l6.83,18.73C624.62,78.99,624.54,79.22,624.16,79.22z M737,97.59
	c7.62-6.53,8.61-17.22,8.61-27.28v-9.7c0-13.78,0-16.32,0.18-19.22c0.18-3.17,0.91-4.71,3.35-5.17c1.09-0.18,1.63-0.27,2.63-0.27
	c1.09,0,1.63-0.18,1.63-0.82c0-0.63-0.63-0.82-1.9-0.82c-3.53,0-9.24,0.27-10.33,0.27c-0.09,0-5.8-0.27-10.43-0.27
	c-1.27,0-1.9,0.18-1.9,0.82c0,0.63,0.54,0.82,1.54,0.82c1,0,2.54,0.09,3.26,0.27c2.99,0.63,3.72,2.09,3.9,5.17
	c0.18,2.9,0.18,5.44,0.18,19.22v11.33c0,9.34-0.27,17.5-5.26,22.48c-3.62,3.63-8.52,4.89-12.51,4.89c-3.08,0-7.25-0.36-11.33-3.72
	c-4.44-3.63-7.07-9.16-7.07-22.3V60.61c0-13.78,0-16.32,0.18-19.22c0.18-3.17,0.91-4.71,3.35-5.17c1.09-0.18,1.63-0.27,2.63-0.27
	c0.91,0,1.45-0.18,1.45-0.82c0-0.63-0.64-0.82-2-0.82c-3.26,0-8.97,0.27-11.15,0.27c-2.72,0-8.43-0.27-13.24-0.27
	c-1.36,0-1.99,0.18-1.99,0.82c0,0.63,0.54,0.82,1.54,0.82c1.27,0,2.81,0.09,3.54,0.27c2.99,0.63,3.71,2.09,3.9,5.17
	c0.18,2.9,0.18,5.44,0.18,19.22v13.23c0,13.15,3.44,19.85,8.07,24.02c6.62,5.98,15.32,6.26,20.12,6.26
	C724.03,104.12,730.56,103.12,737,97.59z M814.31,103.72c0.68,0,0.99-0.68,0.99-2.35l0.83-47.86c0.07-4.25,0.68-5.84,2.8-6.45
	c0.91-0.23,1.52-0.23,2.28-0.23c0.91,0,1.37-0.23,1.37-0.68c0-0.61-0.76-0.68-1.74-0.68c-3.72,0-6.6,0.23-7.44,0.23
	c-1.59,0-5.23-0.23-9.18-0.23c-1.14,0-1.97,0.07-1.97,0.68c0,0.45,0.3,0.68,1.21,0.68c1.06,0,2.88,0,4.02,0.45
	c1.82,0.76,2.5,2.2,2.58,6.83l0.76,34.05h-0.38c-1.29-1.21-11.53-12.14-16.68-17.29c-11.07-11-22.6-23.36-23.51-24.35
	c-1.29-1.37-1.97-2.35-2.81-2.35c-0.76,0-0.98,1.06-0.98,2.58l-0.68,44.9c-0.08,6.6-0.38,8.8-2.35,9.41
	c-1.06,0.3-2.43,0.38-3.42,0.38c-0.76,0-1.21,0.15-1.21,0.61c0,0.68,0.68,0.76,1.67,0.76c3.95,0,7.51-0.23,8.19-0.23
	c1.44,0,4.48,0.23,9.4,0.23c1.06,0,1.74-0.15,1.74-0.76c0-0.46-0.45-0.61-1.29-0.61c-1.22,0-2.65-0.08-3.95-0.53
	c-1.52-0.53-2.5-2.5-2.65-8.42l-0.83-31.86h0.23c1.37,1.44,9.79,10.92,18.06,19.11c7.89,7.81,17.6,17.75,22.37,22.3
	C812.56,102.88,813.47,103.72,814.31,103.72z M836.49,46.83c0.91,0,1.9,0.08,2.73,0.3c1.67,0.38,2.43,1.67,2.58,4.25
	c0.15,2.42,0.15,4.55,0.15,16.08v13.35c0,7.36,0,13.35-0.38,16.54c-0.23,2.2-0.69,3.49-2.2,3.79c-0.69,0.15-1.6,0.31-2.73,0.31
	c-0.91,0-1.21,0.22-1.21,0.61c0,0.53,0.53,0.76,1.52,0.76c3.03,0,7.81-0.23,9.56-0.23c2.05,0,6.83,0.23,11.83,0.23
	c0.83,0,1.44-0.23,1.44-0.76c0-0.38-0.38-0.61-1.21-0.61c-1.14,0-2.81-0.15-3.87-0.31c-2.28-0.3-2.81-1.67-3.03-3.72
	c-0.3-3.26-0.3-9.25-0.3-16.61V67.46c0-11.53,0-13.65,0.15-16.08c0.15-2.66,0.76-3.95,2.81-4.32c0.91-0.15,1.52-0.23,2.28-0.23
	c0.76,0,1.21-0.15,1.21-0.76c0-0.45-0.61-0.61-1.59-0.61c-2.88,0-7.36,0.23-9.25,0.23c-2.2,0-6.98-0.23-9.86-0.23
	c-1.21,0-1.82,0.15-1.82,0.61C835.27,46.68,835.73,46.83,836.49,46.83z M866.56,46.83c0.61,0,1.82,0,2.96,0.3
	c2.73,0.76,4.02,1.59,5.76,5.77l19.11,46.34c1.44,3.57,1.9,4.63,2.88,4.63c1.06,0,1.52-1.21,3.49-5.61
	c1.67-3.79,5.23-12.06,10.08-23.13c4.1-9.33,6.15-13.42,9.1-20.55c2.05-4.85,3.19-6.14,4.17-6.83c1.37-0.91,2.96-0.91,3.72-0.91
	c0.76,0,1.21-0.15,1.21-0.68c0-0.53-0.61-0.68-1.59-0.68c-2.27,0-5.84,0.23-7.13,0.23c-0.99,0-4.17-0.23-7.96-0.23
	c-1.44,0-2.12,0.15-2.12,0.76c0,0.53,0.6,0.61,1.29,0.61c0.98,0,2.12,0.08,3.03,0.38c0.68,0.23,0.98,0.83,0.98,1.44
	c0,0.68-0.3,1.82-0.68,2.81c-1.82,5.01-11.68,29.43-14.95,37.77h-0.3l-13.05-34.43c-1.06-2.73-1.74-4.85-1.74-5.84
	c0-0.68,0.23-1.21,0.76-1.59c0.61-0.45,1.75-0.53,2.96-0.53c0.68,0,1.14-0.15,1.14-0.68c0-0.53-0.83-0.68-1.75-0.68
	c-3.79,0-7.43,0.23-9.33,0.23c-2.66,0-6.98-0.23-11-0.23c-1.14,0-1.97,0.07-1.97,0.68C865.65,46.6,865.88,46.83,866.56,46.83z
	 M937.67,47.06c2.5,0.53,3.11,1.74,3.26,4.32c0.15,2.42,0.15,4.55,0.15,16.08v13.35c0,6.98,0,12.97-0.38,16.16
	c-0.3,2.2-0.68,3.87-2.2,4.17c-0.68,0.15-1.59,0.31-2.73,0.31c-0.91,0-1.21,0.22-1.21,0.61c0,0.53,0.53,0.76,1.52,0.76
	c3.03,0,7.81-0.23,9.56-0.23c4.48,0,9.56,0.45,21.01,0.45c2.88,0,3.57,0,4.1-1.97c0.38-1.52,0.99-6.68,0.99-8.42
	c0-0.76,0-1.37-0.61-1.37c-0.53,0-0.68,0.31-0.83,1.14c-0.53,3.11-1.44,4.7-3.41,5.61c-1.97,0.91-5.16,0.91-7.13,0.91
	c-7.73,0-8.95-1.14-9.1-6.37c-0.07-2.2,0-9.18,0-11.76v-5.99c0-0.46,0.08-0.76,0.46-0.76c1.82,0,9.33,0.07,10.77,0.23
	c2.81,0.3,3.87,1.44,4.25,2.96c0.23,0.99,0.23,1.97,0.3,2.73c0,0.38,0.15,0.68,0.68,0.68c0.68,0,0.68-0.83,0.68-1.44
	c0-0.53,0.15-3.57,0.3-5.08c0.23-3.87,0.61-5.08,0.61-5.54c0-0.45-0.23-0.61-0.53-0.61c-0.38,0-0.68,0.38-1.22,0.99
	c-0.68,0.76-1.82,0.99-3.64,1.14c-1.74,0.15-10.47,0.15-12.13,0.15c-0.46,0-0.53-0.3-0.53-0.83V50.24c0-0.53,0.15-0.76,0.53-0.76
	c1.52,0,9.48,0.15,10.77,0.3c3.79,0.46,4.55,1.37,5.08,2.73c0.38,0.91,0.46,2.2,0.46,2.73c0,0.68,0.15,1.06,0.68,1.06
	c0.53,0,0.68-0.46,0.76-0.84c0.15-0.91,0.3-4.25,0.38-5c0.23-3.49,0.61-4.4,0.61-4.93c0-0.38-0.08-0.68-0.46-0.68
	c-0.38,0-0.83,0.23-1.21,0.3c-0.61,0.15-1.82,0.3-3.26,0.45c-1.44,0.08-16.53,0.08-18.96,0.08c-2.12,0-6.9-0.23-10.92-0.23
	c-1.14,0-1.67,0.15-1.67,0.68c0,0.53,0.46,0.68,1.29,0.68C935.77,46.83,937.06,46.91,937.67,47.06z M1044.47,101.44
	c-0.61,0-1.29-0.08-2.13-0.23c-1.14-0.23-4.25-0.76-8.5-5.16c-4.48-4.71-9.71-11.45-16.46-19.95c7.66-6.22,10.01-11.38,10.01-16.99
	c0-5.08-3.03-8.95-5.15-10.39c-4.1-2.81-9.18-3.26-13.96-3.26c-2.35,0-8.11,0.23-10.69,0.23c-1.59,0-6.37-0.23-10.39-0.23
	c-1.14,0-1.67,0.15-1.67,0.68c0,0.53,0.46,0.68,1.29,0.68c1.06,0,2.35,0.08,2.96,0.23c2.5,0.53,3.11,1.74,3.26,4.32
	c0.15,2.42,0.15,4.55,0.15,16.08v13.35c0,6.98,0,12.97-0.38,16.16c-0.3,2.2-0.68,3.87-2.2,4.17c-0.68,0.15-1.59,0.31-2.73,0.31
	c-0.91,0-1.21,0.22-1.21,0.61c0,0.53,0.53,0.76,1.52,0.76c3.03,0,7.81-0.23,9.25-0.23c1.14,0,6.75,0.23,11.15,0.23
	c0.98,0,1.52-0.23,1.52-0.76c0-0.38-0.3-0.61-0.91-0.61c-0.91,0-2.58-0.15-3.72-0.31c-2.28-0.3-2.73-1.97-2.96-4.17
	c-0.38-3.18-0.38-9.18-0.38-16.23v-1.06c0-0.45,0.23-0.61,0.61-0.61l6.6,0.15c0.53,0,0.98,0.07,1.36,0.53
	c0.99,1.14,4.48,6.29,7.51,10.47c4.25,5.84,7.13,9.4,10.39,11.15c1.97,1.06,3.87,1.44,8.11,1.44h7.21c0.91,0,1.44-0.15,1.44-0.76
	C1045.37,101.67,1045.07,101.44,1044.47,101.44z M1013.97,74.29c-1.37,0.99-2.35,1.29-5.38,1.29c-1.9,0-4.17-0.23-5.77-0.76
	c-0.53-0.23-0.68-0.53-0.68-1.37V50.39c0-0.61,0.15-0.91,0.68-1.06c0.76-0.23,2.12-0.3,4.02-0.3c4.47,0,11.6,3.11,11.6,13.88
	C1018.45,69.13,1016.25,72.62,1013.97,74.29z M1068.74,68.22l-2.13-1.59c-6.29-4.78-8.04-7.43-8.04-10.92
	c0-4.55,3.41-7.81,9.02-7.81c4.93,0,7.13,2.28,8.27,3.72c1.59,1.97,1.97,4.32,1.97,5.01c0,0.91,0.23,1.37,0.76,1.37
	c0.61,0,0.83-0.61,0.83-2.28c0-5.92,0.3-8.12,0.3-9.1c0-0.53-0.38-0.76-1.06-0.91c-1.97-0.53-5.16-1.29-10.09-1.29
	c-10.54,0-17.52,5.99-17.52,14.33c0,6.15,2.88,11.45,11.23,17.98l3.49,2.73c6.3,4.86,7.43,8.42,7.43,12.14
	c0,4.02-3.34,8.64-10.17,8.64c-4.7,0-9.18-2.05-10.84-7.66c-0.38-1.29-0.68-2.88-0.68-3.87c0-0.61-0.08-1.29-0.76-1.29
	c-0.61,0-0.84,0.83-0.91,1.97c-0.08,1.21-0.38,5.76-0.38,9.94c0,1.67,0.23,2.05,1.44,2.58c3.26,1.44,6.68,1.97,11.08,1.97
	c4.02,0,8.27-0.68,12.06-3.11c5.46-3.56,7.13-8.8,7.13-13.2C1081.17,80.35,1077.84,75.27,1068.74,68.22z M1119.21,101.44
	c-1.14,0-2.81-0.15-3.87-0.31c-2.28-0.3-2.81-1.67-3.03-3.72c-0.31-3.26-0.31-9.25-0.31-16.61V67.46c0-11.53,0-13.65,0.15-16.08
	c0.15-2.66,0.76-3.95,2.81-4.32c0.91-0.15,1.51-0.23,2.27-0.23c0.76,0,1.21-0.15,1.21-0.76c0-0.45-0.61-0.61-1.59-0.61
	c-2.88,0-7.36,0.23-9.25,0.23c-2.2,0-6.98-0.23-9.86-0.23c-1.21,0-1.82,0.15-1.82,0.61c0,0.61,0.45,0.76,1.21,0.76
	c0.91,0,1.9,0.08,2.73,0.3c1.67,0.38,2.43,1.67,2.58,4.25c0.15,2.42,0.15,4.55,0.15,16.08v13.35c0,7.36,0,13.35-0.38,16.54
	c-0.23,2.2-0.68,3.49-2.2,3.79c-0.68,0.15-1.59,0.31-2.73,0.31c-0.91,0-1.21,0.22-1.21,0.61c0,0.53,0.53,0.76,1.52,0.76
	c3.03,0,7.81-0.23,9.55-0.23c2.05,0,6.83,0.23,11.83,0.23c0.84,0,1.44-0.23,1.44-0.76C1120.42,101.67,1120.04,101.44,1119.21,101.44
	z M1183.61,44.93c-0.61,0-2.43,0.76-7.28,0.76h-30.04c-2.5,0-5.39-0.15-7.59-0.38c-1.9-0.15-2.66-0.91-3.26-0.91
	c-0.45,0-0.68,0.45-0.91,1.44c-0.15,0.61-1.59,7.51-1.59,8.72c0,0.83,0.15,1.21,0.68,1.21c0.46,0,0.68-0.3,0.84-0.91
	c0.15-0.61,0.53-1.52,1.29-2.65c1.14-1.67,2.96-2.05,7.36-2.2l11.3-0.3v31.1c0,6.98,0,12.97-0.38,16.16
	c-0.23,2.2-0.68,3.87-2.2,4.17c-0.68,0.15-1.59,0.31-2.73,0.31c-0.91,0-1.21,0.22-1.21,0.61c0,0.53,0.53,0.76,1.52,0.76
	c3.03,0,7.81-0.23,9.56-0.23c2.13,0,6.9,0.23,11.91,0.23c0.83,0,1.44-0.23,1.44-0.76c0-0.38-0.38-0.61-1.21-0.61
	c-1.14,0-2.81-0.15-3.87-0.31c-2.28-0.3-2.73-1.97-2.96-4.09c-0.38-3.26-0.38-9.25-0.38-16.23v-31.1l9.56,0.23
	c6.75,0.15,8.8,2.28,8.95,4.25l0.07,0.84c0.08,1.14,0.23,1.52,0.84,1.52c0.45,0,0.61-0.46,0.68-1.21c0-1.97,0.23-7.21,0.23-8.8
	C1184.21,45.39,1184.14,44.93,1183.61,44.93z M1249.98,45.46c-1.44,0-6.45,0.23-8.12,0.23c-2.2,0-4.63-0.23-7.13-0.23
	c-0.91,0-1.29,0.15-1.29,0.68c0,0.45,0.68,0.61,1.37,0.76c1.29,0.3,1.59,1.14,1.59,1.9c0,0.99-0.3,2.28-1.06,3.94
	c-1.06,2.35-10.62,19.04-11.37,20.86c-1.22-2.13-11.84-20.4-12.9-22.68c-0.53-1.06-0.91-1.97-0.91-2.58c0-0.61,0.38-1.21,1.06-1.37
	c1.14-0.3,1.67-0.38,1.67-0.83c0-0.46-0.38-0.68-1.14-0.68c-3.42,0-6.53,0.23-8.12,0.23c-2.5,0-8.19-0.23-9.56-0.23
	c-0.91,0-1.44,0.23-1.44,0.68c0,0.53,0.53,0.68,1.14,0.68c0.91,0,2.2,0.45,3.18,0.99c1.44,0.83,3.34,2.73,5.24,5.54
	c2.65,3.95,12.82,20.63,13.35,21.84c0.99,2.2,1.74,3.87,1.74,7.96v6.22c0,1.21,0,4.4-0.23,7.59c-0.15,2.2-0.83,3.87-2.35,4.17
	c-0.68,0.15-1.59,0.31-2.66,0.31c-0.83,0-1.21,0.22-1.21,0.61c0,0.6,0.61,0.76,1.67,0.76c2.81,0,7.59-0.23,9.48-0.23
	c2.05,0,6.83,0.23,11.61,0.23c0.99,0,1.59-0.23,1.59-0.76c0-0.38-0.38-0.61-1.21-0.61c-1.06,0-2.73-0.15-3.79-0.31
	c-2.28-0.3-2.96-1.97-3.11-4.17c-0.23-3.18-0.23-6.37-0.23-7.59v-6.22c0-2.5,0-4.85,1.14-7.58c1.36-3.26,11.98-21.09,14.49-24.12
	c1.67-2.05,2.5-2.96,4.09-3.72c1.14-0.61,2.58-0.91,3.34-0.91c0.83,0,1.44-0.23,1.44-0.76
	C1251.34,45.62,1250.81,45.46,1249.98,45.46z M177.54,183.84c-0.75,0-1.84-0.1-2.54-0.2c-1.5-0.2-1.84-1.1-1.99-2.44
	c-0.2-2.14-0.2-6.08-0.2-10.91v-8.77c0-7.57,0-8.97,0.1-10.56c0.1-1.74,0.5-2.59,1.84-2.84c0.6-0.1,1-0.15,1.49-0.15
	c0.5,0,0.8-0.1,0.8-0.5c0-0.3-0.4-0.4-1.05-0.4c-1.89,0-4.83,0.15-6.08,0.15c-1.44,0-4.58-0.15-6.48-0.15c-0.8,0-1.2,0.1-1.2,0.4
	c0,0.4,0.3,0.5,0.8,0.5c0.6,0,1.24,0.05,1.79,0.2c1.1,0.25,1.59,1.1,1.69,2.79c0.1,1.59,0.1,2.99,0.1,10.56v8.77
	c0,4.83,0,8.77-0.25,10.86c-0.15,1.45-0.45,2.29-1.44,2.49c-0.45,0.1-1.05,0.2-1.79,0.2c-0.6,0-0.8,0.15-0.8,0.4
	c0,0.35,0.35,0.5,0.99,0.5c1.99,0,5.13-0.15,6.28-0.15c1.34,0,4.48,0.15,7.77,0.15c0.55,0,0.95-0.15,0.95-0.5
	C178.34,183.99,178.09,183.84,177.54,183.84z M226.6,147.08c-2.44,0-4.33,0.15-4.88,0.15c-1.05,0-3.44-0.15-6.03-0.15
	c-0.75,0-1.3,0.05-1.3,0.45c0,0.3,0.2,0.45,0.8,0.45c0.7,0,1.89,0,2.64,0.3c1.19,0.5,1.64,1.44,1.69,4.48l0.5,22.36h-0.25
	c-0.85-0.8-7.57-7.97-10.96-11.36c-7.27-7.22-14.84-15.34-15.44-15.99c-0.85-0.89-1.3-1.54-1.84-1.54c-0.5,0-0.65,0.7-0.65,1.69
	l-0.45,29.49c-0.05,4.33-0.25,5.78-1.54,6.18c-0.7,0.2-1.59,0.25-2.24,0.25c-0.5,0-0.8,0.1-0.8,0.4c0,0.45,0.45,0.5,1.1,0.5
	c2.59,0,4.93-0.15,5.38-0.15c0.95,0,2.94,0.15,6.18,0.15c0.7,0,1.14-0.1,1.14-0.5c0-0.3-0.3-0.4-0.85-0.4
	c-0.8,0-1.74-0.05-2.59-0.35c-1-0.35-1.65-1.65-1.74-5.53l-0.55-20.92h0.15c0.9,0.95,6.43,7.17,11.85,12.55
	c5.18,5.13,11.56,11.66,14.69,14.64c0.55,0.55,1.14,1.1,1.69,1.1c0.45,0,0.65-0.45,0.65-1.55l0.55-31.43
	c0.05-2.79,0.45-3.84,1.84-4.23c0.6-0.15,1-0.15,1.49-0.15c0.6,0,0.9-0.15,0.9-0.45C227.75,147.13,227.25,147.08,226.6,147.08z
	 M284.68,146.73c-0.2,0-0.6,0.1-1.34,0.25c-0.75,0.1-1.84,0.25-3.44,0.25h-19.73c-1.64,0-3.54-0.1-4.98-0.25
	c-1.25-0.1-1.74-0.6-2.14-0.6c-0.3,0-0.45,0.3-0.6,0.94c-0.1,0.4-1.05,4.93-1.05,5.73c0,0.54,0.1,0.79,0.45,0.79
	c0.3,0,0.45-0.2,0.55-0.6c0.1-0.4,0.35-0.99,0.85-1.74c0.75-1.1,1.94-1.35,4.83-1.44l7.42-0.2v20.42c0,4.58,0,8.52-0.25,10.61
	c-0.15,1.45-0.45,2.54-1.44,2.74c-0.45,0.1-1.05,0.2-1.79,0.2c-0.6,0-0.8,0.15-0.8,0.4c0,0.35,0.35,0.5,1,0.5
	c1.99,0,5.13-0.15,6.28-0.15c1.4,0,4.53,0.15,7.82,0.15c0.55,0,0.95-0.15,0.95-0.5c0-0.25-0.25-0.4-0.8-0.4
	c-0.75,0-1.84-0.1-2.54-0.2c-1.49-0.2-1.79-1.29-1.94-2.69c-0.25-2.14-0.25-6.08-0.25-10.66v-20.42l6.28,0.15
	c4.43,0.1,5.78,1.5,5.88,2.79l0.05,0.55c0.05,0.75,0.15,1,0.55,1c0.3,0,0.4-0.3,0.45-0.8c0-1.29,0.15-4.73,0.15-5.78
	C285.08,147.03,285.03,146.73,284.68,146.73z M333.59,183.84c-0.75,0-1.84-0.1-2.54-0.2c-1.49-0.2-1.79-1.29-1.94-2.69
	c-0.25-2.14-0.25-6.08-0.25-10.66v-8.77c0-7.57,0-8.97,0.1-10.56c0.1-1.74,0.5-2.59,1.84-2.84c0.6-0.1,1.04-0.15,1.44-0.15
	c0.6,0,0.9-0.1,0.9-0.45c0-0.35-0.35-0.45-1.05-0.45c-1.94,0-5.08,0.15-6.28,0.15c-1.35,0-4.48-0.15-7.17-0.15
	c-0.7,0-1.05,0.1-1.05,0.45c0,0.35,0.3,0.45,0.85,0.45c0.7,0,1.54,0.05,1.94,0.15c1.64,0.35,2.04,1.14,2.14,2.84
	c0.1,1.59,0.1,2.99,0.1,10.56v1.04c0,0.25-0.15,0.35-0.3,0.35h-19.03c-0.15,0-0.3-0.1-0.3-0.35v-1.04c0-7.57,0-8.97,0.1-10.56
	c0.1-1.74,0.5-2.59,1.84-2.84c0.6-0.1,1.05-0.15,1.45-0.15c0.6,0,0.9-0.1,0.9-0.45c0-0.35-0.35-0.45-1.05-0.45
	c-1.94,0-5.08,0.15-6.28,0.15c-1.34,0-4.48-0.15-7.17-0.15c-0.7,0-1.05,0.1-1.05,0.45c0,0.35,0.3,0.45,0.85,0.45
	c0.7,0,1.55,0.05,1.94,0.15c1.64,0.35,2.04,1.14,2.14,2.84c0.1,1.59,0.1,2.99,0.1,10.56v8.77c0,4.58,0,8.52-0.25,10.61
	c-0.2,1.45-0.45,2.54-1.45,2.74c-0.45,0.1-1.05,0.2-1.79,0.2c-0.6,0-0.8,0.15-0.8,0.4c0,0.35,0.35,0.5,1,0.5
	c1.99,0,5.13-0.15,6.28-0.15c1.4,0,4.53,0.15,7.77,0.15c0.6,0,1-0.15,1-0.5c0-0.25-0.25-0.4-0.8-0.4c-0.75,0-1.84-0.1-2.54-0.2
	c-1.49-0.2-1.79-1.29-1.94-2.69c-0.25-2.14-0.25-6.08-0.25-10.66v-4.38c0-0.25,0.15-0.3,0.3-0.3h19.03c0.15,0,0.3,0.1,0.3,0.3v4.38
	c0,4.58,0,8.52-0.25,10.61c-0.2,1.45-0.45,2.54-1.44,2.74c-0.45,0.1-1.05,0.2-1.79,0.2c-0.6,0-0.8,0.15-0.8,0.4
	c0,0.35,0.35,0.5,1.04,0.5c1.94,0,5.08-0.15,6.23-0.15c1.4,0,4.53,0.15,7.77,0.15c0.6,0,1-0.15,1-0.5
	C334.39,183.99,334.14,183.84,333.59,183.84z M367.47,177.17c-0.35,0-0.45,0.2-0.55,0.75c-0.35,2.04-0.95,3.09-2.24,3.68
	c-1.29,0.6-3.39,0.6-4.68,0.6c-5.08,0-5.88-0.75-5.98-4.18c-0.05-1.44,0-6.03,0-7.72v-3.94c0-0.3,0.05-0.5,0.3-0.5
	c1.2,0,6.13,0.05,7.07,0.15c1.84,0.2,2.54,0.95,2.79,1.94c0.15,0.65,0.15,1.29,0.2,1.8c0,0.25,0.1,0.45,0.45,0.45
	c0.45,0,0.45-0.55,0.45-0.95c0-0.35,0.1-2.34,0.2-3.33c0.15-2.54,0.4-3.34,0.4-3.64c0-0.3-0.15-0.4-0.35-0.4
	c-0.25,0-0.45,0.25-0.8,0.65c-0.45,0.5-1.19,0.65-2.39,0.75c-1.15,0.1-6.87,0.1-7.97,0.1c-0.3,0-0.35-0.2-0.35-0.55v-12.6
	c0-0.35,0.1-0.5,0.35-0.5c1,0,6.23,0.1,7.07,0.2c2.49,0.3,2.99,0.9,3.34,1.79c0.25,0.6,0.3,1.44,0.3,1.79c0,0.45,0.1,0.7,0.45,0.7
	c0.35,0,0.45-0.3,0.5-0.55c0.1-0.6,0.2-2.79,0.25-3.29c0.15-2.29,0.4-2.89,0.4-3.24c0-0.25-0.05-0.45-0.3-0.45
	c-0.25,0-0.55,0.15-0.8,0.2c-0.4,0.1-1.19,0.2-2.14,0.3c-0.95,0.05-10.86,0.05-12.45,0.05c-1.39,0-4.53-0.15-7.17-0.15
	c-0.75,0-1.1,0.1-1.1,0.45c0,0.35,0.3,0.45,0.85,0.45c0.7,0,1.54,0.05,1.94,0.15c1.64,0.35,2.04,1.14,2.14,2.84
	c0.1,1.59,0.1,2.99,0.1,10.56v8.77c0,4.58,0,8.52-0.25,10.61c-0.2,1.45-0.45,2.54-1.44,2.74c-0.45,0.1-1.05,0.2-1.79,0.2
	c-0.6,0-0.8,0.15-0.8,0.4c0,0.35,0.35,0.5,1,0.5c1.99,0,5.13-0.15,6.28-0.15c2.94,0,6.28,0.3,13.8,0.3c1.89,0,2.34,0,2.69-1.29
	c0.25-1,0.65-4.38,0.65-5.53C367.86,177.57,367.86,177.17,367.47,177.17z M427.98,175.48c-0.4,0-0.5,0.2-0.65,0.99
	c-0.2,0.9-0.85,2.34-1.69,3.29c-1.99,2.29-4.68,2.79-9.11,2.79c-6.68,0-15.69-5.88-15.69-17.73c0-4.83,0.95-9.57,4.58-12.9
	c2.19-1.99,5.03-3.09,9.36-3.09c4.58,0,8.47,1.34,10.11,3.09c1.25,1.3,1.89,3.04,1.94,4.58c0,0.7,0.1,1.1,0.5,1.1
	c0.45,0,0.55-0.4,0.6-1.15c0.1-0.99,0.05-3.74,0.15-5.38c0.1-1.74,0.25-2.34,0.25-2.74c0-0.3-0.2-0.55-0.75-0.6
	c-1.49-0.15-3.09-0.6-4.98-0.85c-2.29-0.3-4.13-0.5-7.22-0.5c-7.42,0-12.15,1.99-15.74,5.28c-4.78,4.38-5.83,10.26-5.83,13.65
	c0,4.83,1.29,10.41,6.18,14.69c4.53,3.94,10.26,5.43,17.08,5.43c3.19,0,6.97-0.35,8.97-1.14c0.85-0.35,1.04-0.6,1.29-1.44
	c0.5-1.7,1.1-6.03,1.1-6.62C428.43,175.82,428.33,175.48,427.98,175.48z M452.54,183.84c-0.75,0-1.84-0.1-2.54-0.2
	c-1.49-0.2-1.84-1.1-1.99-2.44c-0.2-2.14-0.2-6.08-0.2-10.91v-8.77c0-7.57,0-8.97,0.1-10.56c0.1-1.74,0.5-2.59,1.84-2.84
	c0.6-0.1,1-0.15,1.49-0.15c0.5,0,0.8-0.1,0.8-0.5c0-0.3-0.4-0.4-1.04-0.4c-1.89,0-4.83,0.15-6.08,0.15c-1.45,0-4.58-0.15-6.48-0.15
	c-0.8,0-1.2,0.1-1.2,0.4c0,0.4,0.3,0.5,0.8,0.5c0.6,0,1.25,0.05,1.79,0.2c1.09,0.25,1.59,1.1,1.69,2.79c0.1,1.59,0.1,2.99,0.1,10.56
	v8.77c0,4.83,0,8.77-0.25,10.86c-0.15,1.45-0.45,2.29-1.44,2.49c-0.45,0.1-1.05,0.2-1.79,0.2c-0.6,0-0.8,0.15-0.8,0.4
	c0,0.35,0.35,0.5,1,0.5c1.99,0,5.13-0.15,6.28-0.15c1.34,0,4.48,0.15,7.77,0.15c0.55,0,0.94-0.15,0.94-0.5
	C453.33,183.99,453.09,183.84,452.54,183.84z M492.49,146.73c-0.2,0-0.6,0.1-1.35,0.25c-0.75,0.1-1.84,0.25-3.44,0.25h-19.72
	c-1.64,0-3.54-0.1-4.98-0.25c-1.25-0.1-1.74-0.6-2.14-0.6c-0.3,0-0.45,0.3-0.6,0.94c-0.1,0.4-1.05,4.93-1.05,5.73
	c0,0.54,0.1,0.79,0.45,0.79c0.3,0,0.45-0.2,0.55-0.6c0.1-0.4,0.35-0.99,0.85-1.74c0.75-1.1,1.94-1.35,4.83-1.44l7.42-0.2v20.42
	c0,4.58,0,8.52-0.25,10.61c-0.15,1.45-0.45,2.54-1.44,2.74c-0.45,0.1-1.05,0.2-1.79,0.2c-0.6,0-0.8,0.15-0.8,0.4
	c0,0.35,0.35,0.5,1,0.5c1.99,0,5.13-0.15,6.28-0.15c1.39,0,4.53,0.15,7.82,0.15c0.55,0,0.95-0.15,0.95-0.5c0-0.25-0.25-0.4-0.8-0.4
	c-0.75,0-1.84-0.1-2.54-0.2c-1.49-0.2-1.79-1.29-1.94-2.69c-0.25-2.14-0.25-6.08-0.25-10.66v-20.42l6.28,0.15
	c4.43,0.1,5.78,1.5,5.88,2.79l0.05,0.55c0.05,0.75,0.15,1,0.55,1c0.3,0,0.4-0.3,0.45-0.8c0-1.29,0.15-4.73,0.15-5.78
	C492.88,147.03,492.83,146.73,492.49,146.73z M531.88,147.08c-0.95,0-4.23,0.15-5.33,0.15c-1.45,0-3.04-0.15-4.68-0.15
	c-0.6,0-0.85,0.1-0.85,0.45c0,0.3,0.45,0.4,0.9,0.5c0.85,0.2,1.05,0.75,1.05,1.24c0,0.65-0.2,1.49-0.7,2.59
	c-0.7,1.54-6.97,12.5-7.47,13.7c-0.8-1.39-7.77-13.4-8.47-14.89c-0.35-0.7-0.6-1.3-0.6-1.69c0-0.4,0.25-0.8,0.7-0.9
	c0.75-0.2,1.1-0.25,1.1-0.55c0-0.3-0.25-0.45-0.75-0.45c-2.24,0-4.28,0.15-5.33,0.15c-1.64,0-5.38-0.15-6.28-0.15
	c-0.6,0-0.95,0.15-0.95,0.45c0,0.35,0.35,0.45,0.75,0.45c0.6,0,1.44,0.3,2.09,0.65c0.95,0.55,2.19,1.79,3.44,3.64
	c1.74,2.59,8.42,13.55,8.77,14.34c0.65,1.45,1.15,2.54,1.15,5.23v4.08c0,0.8,0,2.89-0.15,4.98c-0.1,1.45-0.55,2.54-1.55,2.74
	c-0.45,0.1-1.05,0.2-1.74,0.2c-0.55,0-0.8,0.15-0.8,0.4c0,0.4,0.4,0.5,1.1,0.5c1.84,0,4.98-0.15,6.23-0.15
	c1.35,0,4.48,0.15,7.62,0.15c0.65,0,1.04-0.15,1.04-0.5c0-0.25-0.25-0.4-0.8-0.4c-0.7,0-1.79-0.1-2.49-0.2
	c-1.49-0.2-1.94-1.29-2.04-2.74c-0.15-2.09-0.15-4.18-0.15-4.98v-4.08c0-1.64,0-3.19,0.75-4.98c0.9-2.14,7.87-13.85,9.51-15.84
	c1.1-1.34,1.65-1.94,2.69-2.44c0.75-0.4,1.69-0.6,2.19-0.6c0.55,0,0.95-0.15,0.95-0.5C532.78,147.18,532.43,147.08,531.88,147.08z
	 M573.37,146.39c-14.94,0-20.57,11.01-20.57,19.52c0,8.82,5.78,19.52,20.08,19.52c12.65,0,20.62-9.02,20.62-20.42
	C593.49,153.61,585.77,146.39,573.37,146.39z M574.97,182.95c-9.57,0-15.29-8.22-15.29-18.58c0-12.4,6.53-15.59,12.25-15.59
	c8.17,0,14.6,6.92,14.6,18.08C586.52,181.25,578.45,182.95,574.97,182.95z M625.73,146.68c-0.25,0-0.5,0.2-0.8,0.3
	c-0.5,0.15-1.09,0.15-2.04,0.2c-1.14,0.05-11.26,0.05-13.15,0.05c-1.44,0-4.58-0.15-7.18-0.15c-0.75,0-1.14,0.1-1.14,0.5
	c0,0.3,0.35,0.4,0.85,0.4c0.7,0,1.54,0.05,1.94,0.15c1.64,0.35,2.04,1.14,2.14,2.84c0.1,1.59,0.1,2.99,0.1,10.56v8.77
	c0,4.78,0,8.52-0.25,10.61c-0.2,1.45-0.45,2.54-1.45,2.74c-0.45,0.1-1.05,0.2-1.79,0.2c-0.55,0-0.75,0.15-0.75,0.4
	c0,0.4,0.35,0.5,1.04,0.5c1.89,0,5.03-0.15,6.33-0.15c1.3,0,4.43,0.15,7.57,0.15c0.75,0,1.1-0.15,1.1-0.5c0-0.25-0.2-0.4-0.85-0.4
	c-0.7,0-1.79-0.1-2.49-0.2c-1.5-0.2-1.8-1.29-1.94-2.74c-0.25-2.09-0.25-5.83-0.25-10.61v-4.03c0-0.35,0.1-0.45,0.35-0.45
	c0.85,0,6.13,0,7.37,0.15c1.54,0.2,2.29,1.09,2.54,1.79c0.2,0.6,0.3,1.2,0.3,1.55c0,0.35,0.1,0.7,0.4,0.7c0.5,0,0.5-0.5,0.5-0.95
	c0-0.35,0.1-2.64,0.2-3.64c0.15-1.54,0.4-2.79,0.4-3.09c0-0.3-0.1-0.45-0.3-0.45c-0.3,0-0.4,0.2-0.65,0.5
	c-0.5,0.65-1.2,0.85-2.14,0.9c-0.7,0.05-1.39,0.05-2.24,0.05l-6.37,0.05c-0.3,0-0.35-0.15-0.35-0.45v-12.45
	c0-0.55,0.15-0.7,0.45-0.7l7.67,0.15c1.89,0.05,2.94,0.8,3.29,1.49c0.3,0.7,0.3,1.5,0.3,1.89c0.05,0.55,0.15,0.8,0.5,0.8
	c0.35,0,0.45-0.3,0.5-0.7c0.1-0.6,0.2-3.53,0.25-4.04c0.15-1.3,0.4-1.89,0.4-2.24C626.08,146.88,625.93,146.68,625.73,146.68z
	 M692.38,147.08c-2.44,0-4.33,0.15-4.88,0.15c-1.04,0-3.44-0.15-6.03-0.15c-0.75,0-1.29,0.05-1.29,0.45c0,0.3,0.2,0.45,0.8,0.45
	c0.69,0,1.89,0,2.64,0.3c1.19,0.5,1.64,1.44,1.69,4.48l0.49,22.36h-0.25c-0.85-0.8-7.57-7.97-10.96-11.36
	c-7.27-7.22-14.84-15.34-15.44-15.99c-0.85-0.89-1.3-1.54-1.84-1.54c-0.5,0-0.65,0.7-0.65,1.69l-0.45,29.49
	c-0.05,4.33-0.25,5.78-1.54,6.18c-0.7,0.2-1.59,0.25-2.24,0.25c-0.5,0-0.8,0.1-0.8,0.4c0,0.45,0.45,0.5,1.1,0.5
	c2.59,0,4.93-0.15,5.38-0.15c0.95,0,2.94,0.15,6.18,0.15c0.7,0,1.14-0.1,1.14-0.5c0-0.3-0.3-0.4-0.85-0.4
	c-0.8,0-1.74-0.05-2.59-0.35c-0.99-0.35-1.64-1.65-1.74-5.53l-0.55-20.92h0.15c0.9,0.95,6.42,7.17,11.86,12.55
	c5.18,5.13,11.56,11.66,14.69,14.64c0.55,0.55,1.14,1.1,1.69,1.1c0.45,0,0.65-0.45,0.65-1.55l0.55-31.43
	c0.05-2.79,0.45-3.84,1.84-4.23c0.6-0.15,1-0.15,1.49-0.15c0.6,0,0.9-0.15,0.9-0.45C693.52,147.13,693.02,147.08,692.38,147.08z
	 M726.89,177.17c-0.35,0-0.45,0.2-0.55,0.75c-0.35,2.04-0.95,3.09-2.24,3.68c-1.29,0.6-3.39,0.6-4.68,0.6
	c-5.08,0-5.88-0.75-5.98-4.18c-0.05-1.44,0-6.03,0-7.72v-3.94c0-0.3,0.05-0.5,0.3-0.5c1.2,0,6.13,0.05,7.07,0.15
	c1.84,0.2,2.54,0.95,2.79,1.94c0.15,0.65,0.15,1.29,0.2,1.8c0,0.25,0.1,0.45,0.45,0.45c0.45,0,0.45-0.55,0.45-0.95
	c0-0.35,0.1-2.34,0.2-3.33c0.15-2.54,0.4-3.34,0.4-3.64c0-0.3-0.15-0.4-0.35-0.4c-0.25,0-0.45,0.25-0.8,0.65
	c-0.45,0.5-1.2,0.65-2.39,0.75c-1.15,0.1-6.88,0.1-7.97,0.1c-0.3,0-0.35-0.2-0.35-0.55v-12.6c0-0.35,0.1-0.5,0.35-0.5
	c1,0,6.23,0.1,7.07,0.2c2.49,0.3,2.99,0.9,3.34,1.79c0.25,0.6,0.3,1.44,0.3,1.79c0,0.45,0.1,0.7,0.45,0.7c0.35,0,0.45-0.3,0.5-0.55
	c0.1-0.6,0.2-2.79,0.25-3.29c0.15-2.29,0.4-2.89,0.4-3.24c0-0.25-0.05-0.45-0.3-0.45s-0.55,0.15-0.8,0.2c-0.4,0.1-1.2,0.2-2.14,0.3
	c-0.95,0.05-10.86,0.05-12.46,0.05c-1.39,0-4.53-0.15-7.17-0.15c-0.75,0-1.09,0.1-1.09,0.45c0,0.35,0.3,0.45,0.85,0.45
	c0.7,0,1.54,0.05,1.94,0.15c1.65,0.35,2.04,1.14,2.14,2.84c0.1,1.59,0.1,2.99,0.1,10.56v8.77c0,4.58,0,8.52-0.25,10.61
	c-0.2,1.45-0.45,2.54-1.44,2.74c-0.45,0.1-1.05,0.2-1.79,0.2c-0.6,0-0.8,0.15-0.8,0.4c0,0.35,0.35,0.5,1,0.5
	c1.99,0,5.13-0.15,6.27-0.15c2.94,0,6.27,0.3,13.8,0.3c1.9,0,2.34,0,2.69-1.29c0.25-1,0.65-4.38,0.65-5.53
	C727.29,177.57,727.29,177.17,726.89,177.17z M787.71,147.08c-1.64,0-3.79,0.15-4.13,0.15c-0.45,0-2.54-0.15-5.18-0.15
	c-0.75,0-1.15,0.1-1.15,0.45c0,0.3,0.35,0.45,0.85,0.45c1.94,0,2.39,0.7,2.39,1.49c0,0.7-0.15,1.75-0.5,2.89
	c-1.74,5.83-5.73,18.98-6.63,22.31h-0.15l-10.36-25.06c-0.65-1.59-0.9-2.34-1.44-2.34c-0.4,0-0.7,0.4-1.24,1.79l-9.66,25.95h-0.15
	c-0.9-2.79-5.53-17.88-6.38-21.17c-0.6-2.24-1.09-3.94-1.09-4.58c0-0.55,0.1-0.9,0.55-1.1c0.35-0.2,0.85-0.2,1.24-0.2
	c0.5,0,0.9-0.05,0.9-0.45c0-0.3-0.35-0.45-1.05-0.45c-2.89,0-5.08,0.15-5.53,0.15c-0.45,0-3.19-0.15-5.78-0.15
	c-0.7,0-1.1,0.1-1.1,0.45c0,0.4,0.3,0.45,0.8,0.45c0.45,0,1.45,0.1,1.99,0.45c0.7,0.5,1.25,1.69,1.85,3.54l10.56,31.63
	c0.4,1.29,0.65,1.84,1.14,1.84c0.6,0,0.85-0.6,1.79-2.64c2.14-4.58,8.77-22.22,9.71-24.76h0.1L770.43,183
	c0.75,1.84,1.04,2.44,1.54,2.44c0.65,0,0.89-0.6,1.44-2.34c2.44-7.47,7.67-23.31,9.96-29.59c1.05-2.84,1.59-4.83,2.79-5.28
	c0.55-0.2,1.24-0.25,1.74-0.25c0.45,0,0.7-0.15,0.7-0.5C788.61,147.18,788.26,147.08,787.71,147.08z M842.3,147.08
	c-0.95,0-4.23,0.15-5.33,0.15c-1.44,0-3.04-0.15-4.68-0.15c-0.6,0-0.85,0.1-0.85,0.45c0,0.3,0.45,0.4,0.9,0.5
	c0.85,0.2,1.05,0.75,1.05,1.24c0,0.65-0.2,1.49-0.7,2.59c-0.69,1.54-6.97,12.5-7.47,13.7c-0.79-1.39-7.77-13.4-8.47-14.89
	c-0.35-0.7-0.6-1.3-0.6-1.69c0-0.4,0.25-0.8,0.7-0.9c0.75-0.2,1.09-0.25,1.09-0.55c0-0.3-0.25-0.45-0.75-0.45
	c-2.24,0-4.28,0.15-5.33,0.15c-1.64,0-5.38-0.15-6.27-0.15c-0.6,0-0.95,0.15-0.95,0.45c0,0.35,0.35,0.45,0.75,0.45
	c0.6,0,1.45,0.3,2.1,0.65c0.95,0.55,2.19,1.79,3.43,3.64c1.74,2.59,8.42,13.55,8.77,14.34c0.65,1.45,1.15,2.54,1.15,5.23v4.08
	c0,0.8,0,2.89-0.15,4.98c-0.1,1.45-0.55,2.54-1.54,2.74c-0.45,0.1-1.05,0.2-1.74,0.2c-0.55,0-0.8,0.15-0.8,0.4
	c0,0.4,0.4,0.5,1.1,0.5c1.85,0,4.98-0.15,6.23-0.15c1.35,0,4.48,0.15,7.62,0.15c0.65,0,1.04-0.15,1.04-0.5c0-0.25-0.25-0.4-0.8-0.4
	c-0.7,0-1.79-0.1-2.49-0.2c-1.49-0.2-1.94-1.29-2.04-2.74c-0.15-2.09-0.15-4.18-0.15-4.98v-4.08c0-1.64,0-3.19,0.75-4.98
	c0.9-2.14,7.87-13.85,9.51-15.84c1.09-1.34,1.64-1.94,2.69-2.44c0.75-0.4,1.69-0.6,2.19-0.6c0.55,0,0.95-0.15,0.95-0.5
	C843.2,147.18,842.85,147.08,842.3,147.08z M865.33,146.39c-14.94,0-20.57,11.01-20.57,19.52c0,8.82,5.78,19.52,20.07,19.52
	c12.65,0,20.62-9.02,20.62-20.42C885.45,153.61,877.73,146.39,865.33,146.39z M866.92,182.95c-9.56,0-15.29-8.22-15.29-18.58
	c0-12.4,6.53-15.59,12.25-15.59c8.17,0,14.6,6.92,14.6,18.08C878.48,181.25,870.41,182.95,866.92,182.95z M932.08,183.84
	c-0.4,0-0.85-0.05-1.39-0.15c-0.75-0.15-2.79-0.5-5.58-3.39c-2.94-3.09-6.38-7.52-10.81-13.1c5.03-4.08,6.57-7.47,6.57-11.16
	c0-3.34-1.99-5.88-3.38-6.83c-2.69-1.84-6.03-2.14-9.17-2.14c-1.54,0-5.33,0.15-7.02,0.15c-1.05,0-4.18-0.15-6.82-0.15
	c-0.75,0-1.09,0.1-1.09,0.45c0,0.35,0.3,0.45,0.84,0.45c0.7,0,1.54,0.05,1.94,0.15c1.65,0.35,2.04,1.14,2.14,2.84
	c0.1,1.59,0.1,2.99,0.1,10.56v8.77c0,4.58,0,8.52-0.25,10.61c-0.2,1.45-0.45,2.54-1.44,2.74c-0.45,0.1-1.05,0.2-1.79,0.2
	c-0.6,0-0.8,0.15-0.8,0.4c0,0.35,0.35,0.5,1,0.5c1.99,0,5.13-0.15,6.08-0.15c0.75,0,4.43,0.15,7.32,0.15c0.64,0,1-0.15,1-0.5
	c0-0.25-0.2-0.4-0.6-0.4c-0.6,0-1.7-0.1-2.44-0.2c-1.5-0.2-1.79-1.29-1.94-2.74c-0.25-2.09-0.25-6.03-0.25-10.66v-0.7
	c0-0.3,0.15-0.4,0.4-0.4l4.33,0.1c0.35,0,0.65,0.05,0.9,0.35c0.65,0.75,2.94,4.13,4.93,6.87c2.79,3.83,4.68,6.18,6.82,7.32
	c1.3,0.7,2.54,0.95,5.33,0.95h4.73c0.6,0,0.95-0.1,0.95-0.5C932.68,183.99,932.48,183.84,932.08,183.84z M912.06,166.01
	c-0.9,0.65-1.54,0.85-3.54,0.85c-1.24,0-2.74-0.15-3.79-0.5c-0.35-0.15-0.45-0.35-0.45-0.9v-15.14c0-0.4,0.1-0.6,0.45-0.7
	c0.5-0.15,1.39-0.2,2.64-0.2c2.94,0,7.62,2.04,7.62,9.12C915,162.62,913.55,164.91,912.06,166.01z M972.98,183.84
	c-0.6,0-1.59-0.15-3.09-0.75c-2.69-1.05-4.93-3.29-7.12-5.38c-1.94-1.84-11.71-12.35-13.5-14.69c1.7-1.8,9.21-9.26,10.76-10.76
	c2.14-2.09,3.83-3.14,5.38-3.74c0.95-0.35,2.19-0.55,2.89-0.55c0.5,0,0.75-0.1,0.75-0.45c0-0.35-0.35-0.45-0.85-0.45
	c-1.54,0-4.28,0.15-5.83,0.15c-1.35,0-4.09-0.15-5.13-0.15c-0.55,0-0.8,0.1-0.8,0.45c0,0.3,0.2,0.4,0.65,0.5c0.5,0.1,0.7,0.45,0.7,1
	c0,0.85-1.09,2.09-2.49,3.74c-1.45,1.69-8.72,9.11-10.41,10.96h-0.25v-2.19c0-7.57,0-8.97,0.1-10.56c0.1-1.74,0.5-2.59,1.84-2.84
	c0.6-0.1,0.9-0.15,1.39-0.15c0.4,0,0.7-0.1,0.7-0.45c0-0.35-0.35-0.45-1.04-0.45c-1.7,0-4.84,0.15-6.03,0.15
	c-1.2,0-4.33-0.15-6.98-0.15c-0.75,0-1.09,0.1-1.09,0.45c0,0.35,0.3,0.45,0.85,0.45c0.7,0,1.55,0.05,1.94,0.15
	c1.64,0.35,2.04,1.14,2.14,2.84c0.1,1.59,0.1,2.99,0.1,10.56v8.77c0,4.58,0,8.52-0.25,10.61c-0.2,1.45-0.45,2.54-1.44,2.74
	c-0.45,0.1-1.04,0.2-1.79,0.2c-0.6,0-0.8,0.15-0.8,0.4c0,0.35,0.35,0.5,1,0.5c1.99,0,5.13-0.15,6.28-0.15
	c1.24,0,4.38,0.15,7.17,0.15c0.55,0,0.94-0.15,0.94-0.5c0-0.25-0.25-0.4-0.64-0.4c-0.65,0-1.75-0.1-2.44-0.2
	c-1.24-0.2-1.69-1.29-1.79-2.69c-0.15-2.14-0.15-6.08-0.15-10.66v-4.53h0.25l0.55,0.75c1.04,1.44,10.86,12.95,13.05,14.89
	c2.14,1.89,3.49,2.99,6.18,3.24c1.05,0.1,1.94,0.1,3.44,0.1h4.33c0.95,0,1.2-0.15,1.2-0.5
	C973.62,183.94,973.32,183.84,972.98,183.84z M105.16,30.07c-13.07-1.05-24.35,5.94-37.04,8.18c-1.02,0.18-2.38-1.98-3.61-3.21
	c5.88-4.43,5.08-13.12-1.73-16.88c-0.47-0.54-0.3-5.54-0.03-5.77c0.55-0.46,4.9,0.37,5.51-0.17c0.62-0.54,0.49-5.75,0.1-6.25
	c-0.39-0.5-5.29,0.04-5.56-0.3c-0.28-0.34,0.13-5.02-0.33-5.39C62.15,0.02,60.79-0.01,60.04,0c-0.75-0.01-2.11,0.02-2.45,0.29
	c-0.46,0.37-0.05,5.06-0.32,5.39C57,6.02,52.1,5.48,51.7,5.98c-0.39,0.5-0.52,5.71,0.1,6.25c0.62,0.54,4.96-0.3,5.51,0.17
	c0.27,0.22,0.44,5.23-0.03,5.77c-6.81,3.75-7.61,12.44-1.73,16.88c-1.23,1.23-2.6,3.39-3.61,3.21c-12.68-2.24-23.96-9.23-37.04-8.18
	C7.6,30.66,1.62,35.81,0.35,43.21c-2.29,13.32,7.28,23.56,11.93,34.87c1.47,3.57,2.76,8.37,2.52,12.49c0,0,37.99,0,44.72,0v0
	c0,0,0.18,0,0.51,0c0.34,0,0.51,0,0.51,0v0c6.73,0,44.72,0,44.72,0c-0.23-4.13,1.06-8.93,2.53-12.49
	c4.65-11.31,14.22-21.55,11.93-34.87C118.46,35.81,112.48,30.66,105.16,30.07z M54.63,72.71c-1.18,6.69-4.89,10.94-7.98,10.96
	c-2.03,0.01-3.66-0.76-5.13-2.05c-2.04-1.78-3.7-4.71-3.16-6.45c0.45-0.58,5.94,0.25,6.33-0.29c0.39-0.54-0.67-4.82-1.29-5.37
	c-0.62-0.55-5.57,0.19-6.23-0.36c-0.67-0.54-1.28-5.84-1.96-6.16c0,0-5.24-0.78-5.62-0.04c-0.38,0.75,1.77,5.17,1.4,5.92
	c-0.37,0.76-7.3-0.66-7.42,0.12c-0.12,0.78,0.4,4.67,1.06,5.25c0.67,0.58,7.14,0.62,7.14,0.62c1.35,1.03,1.7,3.11,1.71,5.25
	c0.01,2.71-2.1,4.11-5.46,3.17c-6.27-1.75-14.04-15.35-18.65-24.76c-3.39-6.92-5.43-18.24,3.46-21.63
	c5.42-2.07,11.11-0.9,16.95,0.84c6.11,1.82,14.18,4.27,18.93,7.22c1.17,0.72-1.39,0.15,2.83,9.49
	C53.48,58.78,55.45,68.04,54.63,72.71z M110.72,58.52c-4.61,9.41-12.38,23.01-18.65,24.76c-3.36,0.94-5.47-0.46-5.46-3.17
	c0.01-2.14,0.36-4.22,1.71-5.25c0,0,6.47-0.04,7.14-0.62c0.66-0.57,1.18-4.47,1.06-5.25c-0.12-0.78-7.06,0.64-7.42-0.12
	c-0.37-0.75,1.78-5.17,1.4-5.92c-0.38-0.75-5.62,0.04-5.62,0.04c-0.68,0.32-1.29,5.62-1.96,6.16c-0.66,0.54-5.62-0.19-6.23,0.36
	c-0.62,0.55-1.68,4.83-1.29,5.37c0.39,0.55,5.88-0.29,6.33,0.29c0.53,1.73-1.13,4.66-3.16,6.45c-1.48,1.29-3.11,2.06-5.13,2.05
	c-3.09-0.02-6.81-4.27-7.98-10.96c-0.82-4.68,1.15-13.94,3.11-18.28c4.22-9.35,1.66-8.77,2.83-9.49c4.75-2.95,12.82-5.41,18.93-7.22
	c5.83-1.73,11.52-2.9,16.95-0.84C116.16,40.27,114.11,51.59,110.72,58.52z M13.79,104.63h92.5v-7.86h-92.5V104.63z"/>
</svg>
